solid OpenSCAD_Model
  facet normal -0.990184 0.0975242 -0.100124
    outer loop
      vertex -40.3175 0 13.4399
      vertex -39.6058 5.74717 12
      vertex -40.1719 0 12
    endloop
  endfacet
  facet normal -0.990184 0.0975246 -0.100123
    outer loop
      vertex -39.6058 5.74717 12
      vertex -40.3175 0 13.4399
      vertex -39.5428 7.86555 13.4399
    endloop
  endfacet
  facet normal -0.990184 0.0975247 -0.100123
    outer loop
      vertex -39.5428 7.86555 13.4399
      vertex -39.4 7.83714 12
      vertex -39.6058 5.74717 12
    endloop
  endfacet
  facet normal -0.994654 0.0979647 -0.0326551
    outer loop
      vertex -40.5 0 19
      vertex -39.7365 7.70629 18.8629
      vertex -40.3175 0 13.4399
    endloop
  endfacet
  facet normal -0.994654 0.0979649 -0.032642
    outer loop
      vertex -39.7365 7.70629 18.8629
      vertex -40.5 0 19
      vertex -39.75 7.61488 19
    endloop
  endfacet
  facet normal -0.994654 0.0979649 -0.0326549
    outer loop
      vertex -40.3175 0 13.4399
      vertex -39.7081 7.89843 18.5747
      vertex -39.5428 7.86555 13.4399
    endloop
  endfacet
  facet normal -0.994653 0.0979692 -0.0326615
    outer loop
      vertex -39.7081 7.89843 18.5747
      vertex -40.3175 0 13.4399
      vertex -39.7365 7.70629 18.8629
    endloop
  endfacet
  facet normal -0.994654 0.0979649 0.0326551
    outer loop
      vertex -40.3175 0 24.5601
      vertex -39.5428 7.86555 24.5601
      vertex -40.5 0 19
    endloop
  endfacet
  facet normal -0.994654 0.0979649 0.0326572
    outer loop
      vertex -40.5 0 19
      vertex -39.7081 7.89843 19.4253
      vertex -39.75 7.61488 19
    endloop
  endfacet
  facet normal -0.994654 0.097965 0.0326549
    outer loop
      vertex -39.7081 7.89843 19.4253
      vertex -40.5 0 19
      vertex -39.5428 7.86555 24.5601
    endloop
  endfacet
  facet normal -0.990184 0.0975229 0.100124
    outer loop
      vertex -40.1719 0 26
      vertex -39.966 2.08998 26
      vertex -40.3175 0 24.5601
    endloop
  endfacet
  facet normal -0.990184 0.0975248 0.100123
    outer loop
      vertex -39.5428 7.86555 24.5601
      vertex -39.966 2.08998 26
      vertex -39.4 7.83714 26
    endloop
  endfacet
  facet normal -0.990184 0.0975246 0.100122
    outer loop
      vertex -39.966 2.08998 26
      vertex -39.5428 7.86555 24.5601
      vertex -40.3175 0 24.5601
    endloop
  endfacet
  facet normal -0.952131 0.288827 -0.100124
    outer loop
      vertex -37.7236 13.3634 12
      vertex -37.7737 13.6975 13.4399
      vertex -37.3991 14.7741 12.9835
    endloop
  endfacet
  facet normal -0.952132 0.288826 -0.100124
    outer loop
      vertex -37.7236 13.3634 12
      vertex -39.5428 7.86555 13.4399
      vertex -37.7737 13.6975 13.4399
    endloop
  endfacet
  facet normal -0.952132 0.288826 -0.100123
    outer loop
      vertex -39.5428 7.86555 13.4399
      vertex -37.7236 13.3634 12
      vertex -39.4 7.83714 12
    endloop
  endfacet
  facet normal -0.952132 0.288824 -0.100124
    outer loop
      vertex -37.114 15.3731 12
      vertex -37.3991 14.7741 12.9835
      vertex -37.181 15.4009 12.7177
    endloop
  endfacet
  facet normal -0.952132 0.288826 -0.100122
    outer loop
      vertex -37.3991 14.7741 12.9835
      vertex -37.114 15.3731 12
      vertex -37.7236 13.3634 12
    endloop
  endfacet
  facet normal -0.956432 0.290125 -0.0326549
    outer loop
      vertex -39.5771 8.18067 17.2442
      vertex -39.5428 7.86555 13.4399
      vertex -39.7081 7.89843 18.5747
    endloop
  endfacet
  facet normal -0.95643 0.290131 -0.0326554
    outer loop
      vertex -39.0649 9.67898 15.5558
      vertex -39.5428 7.86555 13.4399
      vertex -39.5771 8.18067 17.2442
    endloop
  endfacet
  facet normal -0.956431 0.290128 -0.0326532
    outer loop
      vertex -39.5428 7.86555 13.4399
      vertex -39.0649 9.67898 15.5558
      vertex -38.8719 10.2746 15.1947
    endloop
  endfacet
  facet normal -0.95643 0.29013 -0.0326553
    outer loop
      vertex -38.2332 12.2456 13.9999
      vertex -39.5428 7.86555 13.4399
      vertex -38.8719 10.2746 15.1947
    endloop
  endfacet
  facet normal -0.95643 0.29013 -0.032656
    outer loop
      vertex -39.5428 7.86555 13.4399
      vertex -38.2332 12.2456 13.9999
      vertex -37.7737 13.6975 13.4399
    endloop
  endfacet
  facet normal -0.95643 0.29013 0.0326553
    outer loop
      vertex -38.2332 12.2456 24.0001
      vertex -39.5428 7.86555 24.5601
      vertex -37.7737 13.6975 24.5601
    endloop
  endfacet
  facet normal -0.95643 0.29013 0.0326543
    outer loop
      vertex -39.0649 9.67898 22.4441
      vertex -39.5428 7.86555 24.5601
      vertex -38.2332 12.2456 24.0001
    endloop
  endfacet
  facet normal -0.95643 0.290131 0.0326554
    outer loop
      vertex -39.5771 8.18067 20.7558
      vertex -39.5428 7.86555 24.5601
      vertex -39.0649 9.67898 22.4441
    endloop
  endfacet
  facet normal -0.956432 0.290125 0.0326549
    outer loop
      vertex -39.5428 7.86555 24.5601
      vertex -39.5771 8.18067 20.7558
      vertex -39.7081 7.89843 19.4253
    endloop
  endfacet
  facet normal -0.952132 0.288826 0.100123
    outer loop
      vertex -39.4 7.83714 26
      vertex -38.7903 9.8468 26
      vertex -39.5428 7.86555 24.5601
    endloop
  endfacet
  facet normal -0.952132 0.288826 0.100124
    outer loop
      vertex -37.7737 13.6975 24.5601
      vertex -37.114 15.3731 26
      vertex -37.181 15.4009 25.2823
    endloop
  endfacet
  facet normal -0.952132 0.288826 0.100124
    outer loop
      vertex -37.7737 13.6975 24.5601
      vertex -38.7903 9.8468 26
      vertex -37.114 15.3731 26
    endloop
  endfacet
  facet normal -0.952132 0.288826 0.100123
    outer loop
      vertex -38.7903 9.8468 26
      vertex -37.7737 13.6975 24.5601
      vertex -39.5428 7.86555 24.5601
    endloop
  endfacet
  facet normal -0.877488 0.469031 -0.100124
    outer loop
      vertex -37.114 15.5089 12.636
      vertex -37.114 15.3731 12
      vertex -37.181 15.4009 12.7177
    endloop
  endfacet
  facet normal -0.877489 0.469029 -0.100123
    outer loop
      vertex -37.114 15.3731 12
      vertex -37.114 15.5089 12.636
      vertex -36.3389 16.8231 12
    endloop
  endfacet
  facet normal -0.877489 0.469028 0.100123
    outer loop
      vertex -37.114 15.5089 25.364
      vertex -37.114 15.3731 26
      vertex -36.3389 16.8231 26
    endloop
  endfacet
  facet normal -0.877488 0.469031 0.100123
    outer loop
      vertex -37.114 15.3731 26
      vertex -37.114 15.5089 25.364
      vertex -37.181 15.4009 25.2823
    endloop
  endfacet
  facet normal 0.877489 0.469029 -0.100123
    outer loop
      vertex 37.114 15.5089 12.636
      vertex 37.114 15.3731 12
      vertex 36.3389 16.8231 12
    endloop
  endfacet
  facet normal 0.877488 0.469031 -0.100124
    outer loop
      vertex 37.114 15.3731 12
      vertex 37.114 15.5089 12.636
      vertex 37.181 15.4009 12.7177
    endloop
  endfacet
  facet normal 0.877488 0.469031 0.100123
    outer loop
      vertex 37.114 15.5089 25.364
      vertex 37.114 15.3731 26
      vertex 37.181 15.4009 25.2823
    endloop
  endfacet
  facet normal 0.877489 0.469028 0.100123
    outer loop
      vertex 37.114 15.3731 26
      vertex 37.114 15.5089 25.364
      vertex 36.3389 16.8231 26
    endloop
  endfacet
  facet normal 0.952132 0.288826 -0.100124
    outer loop
      vertex 37.7737 13.6975 13.4399
      vertex 37.114 15.3731 12
      vertex 37.181 15.4009 12.7177
    endloop
  endfacet
  facet normal 0.952132 0.288826 -0.100123
    outer loop
      vertex 37.7737 13.6975 13.4399
      vertex 38.7903 9.8468 12
      vertex 37.114 15.3731 12
    endloop
  endfacet
  facet normal 0.952132 0.288826 -0.100123
    outer loop
      vertex 38.7903 9.8468 12
      vertex 37.7737 13.6975 13.4399
      vertex 39.5428 7.86555 13.4399
    endloop
  endfacet
  facet normal 0.952132 0.288826 -0.100123
    outer loop
      vertex 39.5428 7.86555 13.4399
      vertex 39.4 7.83714 12
      vertex 38.7903 9.8468 12
    endloop
  endfacet
  facet normal 0.95643 0.29013 -0.032656
    outer loop
      vertex 38.2332 12.2456 13.9999
      vertex 39.5428 7.86555 13.4399
      vertex 37.7737 13.6975 13.4399
    endloop
  endfacet
  facet normal 0.95643 0.29013 -0.0326544
    outer loop
      vertex 39.0649 9.67898 15.5558
      vertex 39.5428 7.86555 13.4399
      vertex 38.2332 12.2456 13.9999
    endloop
  endfacet
  facet normal 0.95643 0.290131 -0.0326554
    outer loop
      vertex 39.5771 8.18067 17.2442
      vertex 39.5428 7.86555 13.4399
      vertex 39.0649 9.67898 15.5558
    endloop
  endfacet
  facet normal 0.956432 0.290125 -0.0326549
    outer loop
      vertex 39.5428 7.86555 13.4399
      vertex 39.5771 8.18067 17.2442
      vertex 39.7081 7.89843 18.5747
    endloop
  endfacet
  facet normal 0.95643 0.29013 0.0326554
    outer loop
      vertex 38.2332 12.2456 24.0001
      vertex 39.5428 7.86555 24.5601
      vertex 38.8719 10.2746 22.8053
    endloop
  endfacet
  facet normal 0.95643 0.29013 0.0326553
    outer loop
      vertex 39.5428 7.86555 24.5601
      vertex 38.2332 12.2456 24.0001
      vertex 37.7737 13.6975 24.5601
    endloop
  endfacet
  facet normal 0.956432 0.290125 0.0326549
    outer loop
      vertex 39.5771 8.18067 20.7558
      vertex 39.5428 7.86555 24.5601
      vertex 39.7081 7.89843 19.4253
    endloop
  endfacet
  facet normal 0.95643 0.290131 0.0326554
    outer loop
      vertex 39.0649 9.67898 22.4441
      vertex 39.5428 7.86555 24.5601
      vertex 39.5771 8.18067 20.7558
    endloop
  endfacet
  facet normal 0.956431 0.290128 0.0326528
    outer loop
      vertex 39.5428 7.86555 24.5601
      vertex 39.0649 9.67898 22.4441
      vertex 38.8719 10.2746 22.8053
    endloop
  endfacet
  facet normal 0.952132 0.288824 0.100124
    outer loop
      vertex 37.114 15.3731 26
      vertex 37.3991 14.7741 25.0165
      vertex 37.181 15.4009 25.2823
    endloop
  endfacet
  facet normal 0.952132 0.288826 0.100122
    outer loop
      vertex 37.3991 14.7741 25.0165
      vertex 37.114 15.3731 26
      vertex 37.7236 13.3634 26
    endloop
  endfacet
  facet normal 0.952131 0.288827 0.100125
    outer loop
      vertex 37.7236 13.3634 26
      vertex 37.7737 13.6975 24.5601
      vertex 37.3991 14.7741 25.0165
    endloop
  endfacet
  facet normal 0.952132 0.288826 0.100124
    outer loop
      vertex 37.7236 13.3634 26
      vertex 39.5428 7.86555 24.5601
      vertex 37.7737 13.6975 24.5601
    endloop
  endfacet
  facet normal 0.952132 0.288826 0.100123
    outer loop
      vertex 39.5428 7.86555 24.5601
      vertex 37.7236 13.3634 26
      vertex 39.4 7.83714 26
    endloop
  endfacet
  facet normal 0.990184 0.0975248 -0.100123
    outer loop
      vertex 39.5428 7.86555 13.4399
      vertex 39.966 2.08998 12
      vertex 39.4 7.83714 12
    endloop
  endfacet
  facet normal 0.990184 0.0975246 -0.100122
    outer loop
      vertex 39.966 2.08998 12
      vertex 39.5428 7.86555 13.4399
      vertex 40.3175 0 13.4399
    endloop
  endfacet
  facet normal 0.990184 0.0975229 -0.100124
    outer loop
      vertex 40.3175 0 13.4399
      vertex 40.1719 0 12
      vertex 39.966 2.08998 12
    endloop
  endfacet
  facet normal 0.994654 0.0979649 -0.0326572
    outer loop
      vertex 40.5 0 19
      vertex 39.7081 7.89843 18.5747
      vertex 39.75 7.61488 19
    endloop
  endfacet
  facet normal 0.994654 0.097965 -0.0326549
    outer loop
      vertex 39.7081 7.89843 18.5747
      vertex 40.5 0 19
      vertex 39.5428 7.86555 13.4399
    endloop
  endfacet
  facet normal 0.994654 0.0979649 -0.0326551
    outer loop
      vertex 40.5 0 19
      vertex 40.3175 0 13.4399
      vertex 39.5428 7.86555 13.4399
    endloop
  endfacet
  facet normal 0.994654 0.0979649 0.0326549
    outer loop
      vertex 40.3175 0 24.5601
      vertex 39.7081 7.89843 19.4253
      vertex 39.5428 7.86555 24.5601
    endloop
  endfacet
  facet normal 0.994653 0.0979692 0.0326615
    outer loop
      vertex 39.7081 7.89843 19.4253
      vertex 40.3175 0 24.5601
      vertex 39.7365 7.70629 19.1371
    endloop
  endfacet
  facet normal 0.994654 0.0979647 0.0326551
    outer loop
      vertex 40.5 0 19
      vertex 39.7365 7.70629 19.1371
      vertex 40.3175 0 24.5601
    endloop
  endfacet
  facet normal 0.994654 0.0979649 0.032642
    outer loop
      vertex 39.7365 7.70629 19.1371
      vertex 40.5 0 19
      vertex 39.75 7.61488 19
    endloop
  endfacet
  facet normal 0.990184 0.0975247 0.100123
    outer loop
      vertex 39.6058 5.74717 26
      vertex 39.5428 7.86555 24.5601
      vertex 39.4 7.83714 26
    endloop
  endfacet
  facet normal 0.990184 0.0975242 0.100124
    outer loop
      vertex 40.3175 0 24.5601
      vertex 39.6058 5.74717 26
      vertex 40.1719 0 26
    endloop
  endfacet
  facet normal 0.990184 0.0975246 0.100123
    outer loop
      vertex 39.6058 5.74717 26
      vertex 40.3175 0 24.5601
      vertex 39.5428 7.86555 24.5601
    endloop
  endfacet
  facet normal -0.995185 0 0.0980166
    outer loop
      vertex -39.75 40.5 19
      vertex -39.5771 8.18067 20.7558
      vertex -39.5771 40.5 20.7558
    endloop
  endfacet
  facet normal -0.995185 -4.80108e-08 0.0980158
    outer loop
      vertex -39.75 40.5 19
      vertex -39.7081 7.89843 19.4253
      vertex -39.5771 8.18067 20.7558
    endloop
  endfacet
  facet normal -0.995185 0 0.0980194
    outer loop
      vertex -39.7081 7.89843 19.4253
      vertex -39.75 40.5 19
      vertex -39.75 7.61488 19
    endloop
  endfacet
  facet normal -0.634393 0 0.773011
    outer loop
      vertex -37.114 40.5 25.364
      vertex -36.3389 16.8231 26
      vertex -36.3389 40.5 26
    endloop
  endfacet
  facet normal -0.634393 0 0.773011
    outer loop
      vertex -36.3389 16.8231 26
      vertex -37.114 40.5 25.364
      vertex -37.114 15.5089 25.364
    endloop
  endfacet
  facet normal -0.881922 0 0.471396
    outer loop
      vertex -39.0649 40.5 22.4441
      vertex -38.2332 12.2456 24.0001
      vertex -38.2332 40.5 24.0001
    endloop
  endfacet
  facet normal -0.881922 0 0.471396
    outer loop
      vertex -38.2332 12.2456 24.0001
      vertex -39.0649 40.5 22.4441
      vertex -39.0649 9.67898 22.4441
    endloop
  endfacet
  facet normal -0.77301 0 0.634394
    outer loop
      vertex -38.2332 40.5 24.0001
      vertex -37.114 15.5089 25.364
      vertex -37.114 40.5 25.364
    endloop
  endfacet
  facet normal -0.773009 1.6954e-07 0.634396
    outer loop
      vertex -38.2332 40.5 24.0001
      vertex -37.181 15.4009 25.2823
      vertex -37.114 15.5089 25.364
    endloop
  endfacet
  facet normal -0.77301 2.31125e-08 0.634394
    outer loop
      vertex -38.2332 40.5 24.0001
      vertex -37.7737 13.6975 24.5601
      vertex -37.181 15.4009 25.2823
    endloop
  endfacet
  facet normal -0.773011 0 0.634393
    outer loop
      vertex -37.7737 13.6975 24.5601
      vertex -38.2332 40.5 24.0001
      vertex -38.2332 12.2456 24.0001
    endloop
  endfacet
  facet normal 0 1 0
    outer loop
      vertex 36.3389 40.5 26
      vertex 32.3764 40.5 22.9265
      vertex 30.75 40.5 23.25
    endloop
  endfacet
  facet normal 0 1 0
    outer loop
      vertex 34.6765 40.5 20.6264
      vertex 38.2332 40.5 24.0001
      vertex 39.0649 40.5 22.4441
    endloop
  endfacet
  facet normal 0 1 0
    outer loop
      vertex 37.114 40.5 25.364
      vertex 33.7552 40.5 22.0052
      vertex 32.3764 40.5 22.9265
    endloop
  endfacet
  facet normal 0 1 0
    outer loop
      vertex 34.6765 40.5 20.6264
      vertex 39.0649 40.5 22.4441
      vertex 39.5771 40.5 20.7558
    endloop
  endfacet
  facet normal 0 1 0
    outer loop
      vertex 38.2332 40.5 24.0001
      vertex 34.6765 40.5 20.6264
      vertex 33.7552 40.5 22.0052
    endloop
  endfacet
  facet normal 0 1 0
    outer loop
      vertex 35 40.5 19
      vertex 39.5771 40.5 20.7558
      vertex 39.75 40.5 19
    endloop
  endfacet
  facet normal 0 1 0
    outer loop
      vertex 39.5771 40.5 20.7558
      vertex 35 40.5 19
      vertex 34.6765 40.5 20.6264
    endloop
  endfacet
  facet normal 0 1 -0
    outer loop
      vertex 39.5771 40.5 17.2442
      vertex 35 40.5 19
      vertex 39.75 40.5 19
    endloop
  endfacet
  facet normal 0 1 0
    outer loop
      vertex 35 40.5 19
      vertex 39.5771 40.5 17.2442
      vertex 34.6765 40.5 17.3736
    endloop
  endfacet
  facet normal 0 1 -0
    outer loop
      vertex 39.0649 40.5 15.5558
      vertex 34.6765 40.5 17.3736
      vertex 39.5771 40.5 17.2442
    endloop
  endfacet
  facet normal 0 1 -0
    outer loop
      vertex 38.2332 40.5 13.9999
      vertex 34.6765 40.5 17.3736
      vertex 39.0649 40.5 15.5558
    endloop
  endfacet
  facet normal 0 1 0
    outer loop
      vertex 34.6765 40.5 17.3736
      vertex 38.2332 40.5 13.9999
      vertex 33.7552 40.5 15.9948
    endloop
  endfacet
  facet normal 0 1 -0
    outer loop
      vertex 37.114 40.5 12.636
      vertex 33.7552 40.5 15.9948
      vertex 38.2332 40.5 13.9999
    endloop
  endfacet
  facet normal 0 1 -0
    outer loop
      vertex 36.3389 40.5 12
      vertex 33.7552 40.5 15.9948
      vertex 37.114 40.5 12.636
    endloop
  endfacet
  facet normal 0 1 0
    outer loop
      vertex 32.3764 40.5 22.9265
      vertex 36.3389 40.5 26
      vertex 37.114 40.5 25.364
    endloop
  endfacet
  facet normal 0 1 0
    outer loop
      vertex 33.7552 40.5 22.0052
      vertex 37.114 40.5 25.364
      vertex 38.2332 40.5 24.0001
    endloop
  endfacet
  facet normal 0 1 0
    outer loop
      vertex 36.3389 40.5 26
      vertex 30.75 40.5 23.25
      vertex 20.1315 40.5 26
    endloop
  endfacet
  facet normal 0 1 -0
    outer loop
      vertex 29.1236 40.5 22.9265
      vertex 20.1315 40.5 26
      vertex 30.75 40.5 23.25
    endloop
  endfacet
  facet normal 0 1 -0
    outer loop
      vertex 27.7448 40.5 22.0052
      vertex 20.1315 40.5 26
      vertex 29.1236 40.5 22.9265
    endloop
  endfacet
  facet normal 0 1 -0
    outer loop
      vertex 26.8235 40.5 20.6264
      vertex 20.1315 40.5 26
      vertex 27.7448 40.5 22.0052
    endloop
  endfacet
  facet normal 0 1 -0
    outer loop
      vertex 26.5 40.5 19
      vertex 20.1315 40.5 26
      vertex 26.8235 40.5 20.6264
    endloop
  endfacet
  facet normal 0 1 0
    outer loop
      vertex 20.1315 40.5 12
      vertex 26.5 40.5 19
      vertex 26.8235 40.5 17.3736
    endloop
  endfacet
  facet normal 0 1 0
    outer loop
      vertex 20.1315 40.5 12
      vertex 26.8235 40.5 17.3736
      vertex 27.7448 40.5 15.9948
    endloop
  endfacet
  facet normal 0 1 0
    outer loop
      vertex 33.7552 40.5 15.9948
      vertex 36.3389 40.5 12
      vertex 32.3764 40.5 15.0735
    endloop
  endfacet
  facet normal 0 1 0
    outer loop
      vertex 32.3764 40.5 15.0735
      vertex 36.3389 40.5 12
      vertex 30.75 40.5 14.75
    endloop
  endfacet
  facet normal 0 1 0
    outer loop
      vertex 20.1315 40.5 12
      vertex 30.75 40.5 14.75
      vertex 36.3389 40.5 12
    endloop
  endfacet
  facet normal 0 1 0
    outer loop
      vertex 26.5 40.5 19
      vertex 20.1315 40.5 12
      vertex 20.1315 40.5 26
    endloop
  endfacet
  facet normal 0 1 0
    outer loop
      vertex 29.1236 40.5 15.0735
      vertex 20.1315 40.5 12
      vertex 27.7448 40.5 15.9948
    endloop
  endfacet
  facet normal 0 1 0
    outer loop
      vertex 30.75 40.5 14.75
      vertex 20.1315 40.5 12
      vertex 29.1236 40.5 15.0735
    endloop
  endfacet
  facet normal 0 1 -0
    outer loop
      vertex -30.75 40.5 23.25
      vertex -36.3389 40.5 26
      vertex -20.1315 40.5 26
    endloop
  endfacet
  facet normal 0 1 -0
    outer loop
      vertex -32.3764 40.5 22.9265
      vertex -36.3389 40.5 26
      vertex -30.75 40.5 23.25
    endloop
  endfacet
  facet normal 0 1 -0
    outer loop
      vertex -33.7552 40.5 22.0052
      vertex -36.3389 40.5 26
      vertex -32.3764 40.5 22.9265
    endloop
  endfacet
  facet normal 0 1 0
    outer loop
      vertex -20.1315 40.5 26
      vertex -29.1236 40.5 22.9265
      vertex -30.75 40.5 23.25
    endloop
  endfacet
  facet normal 0 1 0
    outer loop
      vertex -20.1315 40.5 26
      vertex -27.7448 40.5 22.0052
      vertex -29.1236 40.5 22.9265
    endloop
  endfacet
  facet normal 0 1 0
    outer loop
      vertex -20.1315 40.5 26
      vertex -26.8235 40.5 20.6264
      vertex -27.7448 40.5 22.0052
    endloop
  endfacet
  facet normal 0 1 0
    outer loop
      vertex -20.1315 40.5 26
      vertex -26.5 40.5 19
      vertex -26.8235 40.5 20.6264
    endloop
  endfacet
  facet normal 0 1 -0
    outer loop
      vertex -20.1315 40.5 12
      vertex -26.5 40.5 19
      vertex -20.1315 40.5 26
    endloop
  endfacet
  facet normal 0 1 0
    outer loop
      vertex -26.5 40.5 19
      vertex -20.1315 40.5 12
      vertex -26.8235 40.5 17.3736
    endloop
  endfacet
  facet normal 0 1 0
    outer loop
      vertex -33.7552 40.5 15.9948
      vertex -37.114 40.5 12.636
      vertex -38.2332 40.5 13.9999
    endloop
  endfacet
  facet normal 0 1 0
    outer loop
      vertex -20.1315 40.5 12
      vertex -30.75 40.5 14.75
      vertex -29.1236 40.5 15.0735
    endloop
  endfacet
  facet normal 0 1 0
    outer loop
      vertex -26.8235 40.5 17.3736
      vertex -20.1315 40.5 12
      vertex -27.7448 40.5 15.9948
    endloop
  endfacet
  facet normal 0 1 0
    outer loop
      vertex -20.1315 40.5 12
      vertex -29.1236 40.5 15.0735
      vertex -27.7448 40.5 15.9948
    endloop
  endfacet
  facet normal 0 1 0
    outer loop
      vertex -30.75 40.5 14.75
      vertex -20.1315 40.5 12
      vertex -36.3389 40.5 12
    endloop
  endfacet
  facet normal 0 1 0
    outer loop
      vertex -32.3764 40.5 15.0735
      vertex -36.3389 40.5 12
      vertex -37.114 40.5 12.636
    endloop
  endfacet
  facet normal 0 1 0
    outer loop
      vertex -36.3389 40.5 26
      vertex -33.7552 40.5 22.0052
      vertex -37.114 40.5 25.364
    endloop
  endfacet
  facet normal 0 1 0
    outer loop
      vertex -37.114 40.5 25.364
      vertex -33.7552 40.5 22.0052
      vertex -38.2332 40.5 24.0001
    endloop
  endfacet
  facet normal 0 1 -0
    outer loop
      vertex -34.6765 40.5 20.6264
      vertex -38.2332 40.5 24.0001
      vertex -33.7552 40.5 22.0052
    endloop
  endfacet
  facet normal 0 1 0
    outer loop
      vertex -38.2332 40.5 24.0001
      vertex -34.6765 40.5 20.6264
      vertex -39.0649 40.5 22.4441
    endloop
  endfacet
  facet normal 0 1 0
    outer loop
      vertex -39.0649 40.5 22.4441
      vertex -34.6765 40.5 20.6264
      vertex -39.5771 40.5 20.7558
    endloop
  endfacet
  facet normal 0 1 -0
    outer loop
      vertex -35 40.5 19
      vertex -39.5771 40.5 20.7558
      vertex -34.6765 40.5 20.6264
    endloop
  endfacet
  facet normal 0 1 0
    outer loop
      vertex -35 40.5 19
      vertex -39.75 40.5 19
      vertex -39.5771 40.5 20.7558
    endloop
  endfacet
  facet normal 0 1 0
    outer loop
      vertex -39.5771 40.5 17.2442
      vertex -35 40.5 19
      vertex -34.6765 40.5 17.3736
    endloop
  endfacet
  facet normal 0 1 0
    outer loop
      vertex -35 40.5 19
      vertex -39.5771 40.5 17.2442
      vertex -39.75 40.5 19
    endloop
  endfacet
  facet normal 0 1 0
    outer loop
      vertex -38.2332 40.5 13.9999
      vertex -34.6765 40.5 17.3736
      vertex -33.7552 40.5 15.9948
    endloop
  endfacet
  facet normal 0 1 0
    outer loop
      vertex -34.6765 40.5 17.3736
      vertex -39.0649 40.5 15.5558
      vertex -39.5771 40.5 17.2442
    endloop
  endfacet
  facet normal 0 1 0
    outer loop
      vertex -37.114 40.5 12.636
      vertex -33.7552 40.5 15.9948
      vertex -32.3764 40.5 15.0735
    endloop
  endfacet
  facet normal 0 1 0
    outer loop
      vertex -36.3389 40.5 12
      vertex -32.3764 40.5 15.0735
      vertex -30.75 40.5 14.75
    endloop
  endfacet
  facet normal 0 1 0
    outer loop
      vertex -34.6765 40.5 17.3736
      vertex -38.2332 40.5 13.9999
      vertex -39.0649 40.5 15.5558
    endloop
  endfacet
  facet normal 0 1 -0
    outer loop
      vertex 19.9464 40.5 12
      vertex -19.9464 40.5 26
      vertex 19.9464 40.5 26
    endloop
  endfacet
  facet normal 0 1 0
    outer loop
      vertex -19.9464 40.5 26
      vertex 19.9464 40.5 12
      vertex -19.9464 40.5 12
    endloop
  endfacet
  facet normal -0.95694 0 0.290286
    outer loop
      vertex -39.5771 40.5 20.7558
      vertex -39.0649 9.67898 22.4441
      vertex -39.0649 40.5 22.4441
    endloop
  endfacet
  facet normal -0.95694 0 0.290286
    outer loop
      vertex -39.0649 9.67898 22.4441
      vertex -39.5771 40.5 20.7558
      vertex -39.5771 8.18067 20.7558
    endloop
  endfacet
  facet normal -0.95694 0 -0.290286
    outer loop
      vertex -39.0649 9.67898 15.5558
      vertex -39.5771 40.5 17.2442
      vertex -39.0649 40.5 15.5558
    endloop
  endfacet
  facet normal -0.95694 -0 -0.290286
    outer loop
      vertex -39.5771 40.5 17.2442
      vertex -39.0649 9.67898 15.5558
      vertex -39.5771 8.18067 17.2442
    endloop
  endfacet
  facet normal -0.995185 0 -0.0980166
    outer loop
      vertex -39.5771 8.18067 17.2442
      vertex -39.75 40.5 19
      vertex -39.5771 40.5 17.2442
    endloop
  endfacet
  facet normal -0.995185 -4.80108e-08 -0.0980158
    outer loop
      vertex -39.7081 7.89843 18.5747
      vertex -39.75 40.5 19
      vertex -39.5771 8.18067 17.2442
    endloop
  endfacet
  facet normal -0.995184 9.43125e-08 -0.0980266
    outer loop
      vertex -39.7365 7.70629 18.8629
      vertex -39.75 40.5 19
      vertex -39.7081 7.89843 18.5747
    endloop
  endfacet
  facet normal -0.995186 -0 -0.0980042
    outer loop
      vertex -39.75 40.5 19
      vertex -39.7365 7.70629 18.8629
      vertex -39.75 7.61488 19
    endloop
  endfacet
  facet normal -0.77301 0 -0.634394
    outer loop
      vertex -37.114 15.5089 12.636
      vertex -38.2332 40.5 13.9999
      vertex -37.114 40.5 12.636
    endloop
  endfacet
  facet normal -0.773009 1.6954e-07 -0.634396
    outer loop
      vertex -37.181 15.4009 12.7177
      vertex -38.2332 40.5 13.9999
      vertex -37.114 15.5089 12.636
    endloop
  endfacet
  facet normal -0.773013 -2.41757e-07 -0.634391
    outer loop
      vertex -37.3991 14.7741 12.9835
      vertex -38.2332 40.5 13.9999
      vertex -37.181 15.4009 12.7177
    endloop
  endfacet
  facet normal -0.773009 4.25516e-08 -0.634395
    outer loop
      vertex -37.7737 13.6975 13.4399
      vertex -38.2332 40.5 13.9999
      vertex -37.3991 14.7741 12.9835
    endloop
  endfacet
  facet normal -0.77301 -0 -0.634394
    outer loop
      vertex -38.2332 40.5 13.9999
      vertex -37.7737 13.6975 13.4399
      vertex -38.2332 12.2456 13.9999
    endloop
  endfacet
  facet normal -0.634393 -0 -0.773011
    outer loop
      vertex -37.114 40.5 12.636
      vertex -36.3389 16.8231 12
      vertex -37.114 15.5089 12.636
    endloop
  endfacet
  facet normal -0.634393 0 -0.773011
    outer loop
      vertex -36.3389 16.8231 12
      vertex -37.114 40.5 12.636
      vertex -36.3389 40.5 12
    endloop
  endfacet
  facet normal -0.881922 0 -0.471396
    outer loop
      vertex -38.2332 12.2456 13.9999
      vertex -39.0649 40.5 15.5558
      vertex -38.2332 40.5 13.9999
    endloop
  endfacet
  facet normal -0.881921 5.68977e-08 -0.471397
    outer loop
      vertex -38.8719 10.2746 15.1947
      vertex -39.0649 40.5 15.5558
      vertex -38.2332 12.2456 13.9999
    endloop
  endfacet
  facet normal -0.881923 -0 -0.471393
    outer loop
      vertex -39.0649 40.5 15.5558
      vertex -38.8719 10.2746 15.1947
      vertex -39.0649 9.67898 15.5558
    endloop
  endfacet
  facet normal 0.995185 -0 0.0980166
    outer loop
      vertex 39.5771 8.18067 20.7558
      vertex 39.75 40.5 19
      vertex 39.5771 40.5 20.7558
    endloop
  endfacet
  facet normal 0.995185 -4.80108e-08 0.0980158
    outer loop
      vertex 39.7081 7.89843 19.4253
      vertex 39.75 40.5 19
      vertex 39.5771 8.18067 20.7558
    endloop
  endfacet
  facet normal 0.995184 9.43125e-08 0.0980266
    outer loop
      vertex 39.7365 7.70629 19.1371
      vertex 39.75 40.5 19
      vertex 39.7081 7.89843 19.4253
    endloop
  endfacet
  facet normal 0.995186 0 0.0980042
    outer loop
      vertex 39.75 40.5 19
      vertex 39.7365 7.70629 19.1371
      vertex 39.75 7.61488 19
    endloop
  endfacet
  facet normal 0.95694 -0 0.290286
    outer loop
      vertex 39.0649 9.67898 22.4441
      vertex 39.5771 40.5 20.7558
      vertex 39.0649 40.5 22.4441
    endloop
  endfacet
  facet normal 0.95694 0 0.290286
    outer loop
      vertex 39.5771 40.5 20.7558
      vertex 39.0649 9.67898 22.4441
      vertex 39.5771 8.18067 20.7558
    endloop
  endfacet
  facet normal 0.634393 -0 0.773011
    outer loop
      vertex 36.3389 16.8231 26
      vertex 37.114 40.5 25.364
      vertex 36.3389 40.5 26
    endloop
  endfacet
  facet normal 0.634393 0 0.773011
    outer loop
      vertex 37.114 40.5 25.364
      vertex 36.3389 16.8231 26
      vertex 37.114 15.5089 25.364
    endloop
  endfacet
  facet normal 0.881922 -0 0.471396
    outer loop
      vertex 38.2332 12.2456 24.0001
      vertex 39.0649 40.5 22.4441
      vertex 38.2332 40.5 24.0001
    endloop
  endfacet
  facet normal 0.881921 9.04782e-08 0.471397
    outer loop
      vertex 38.8719 10.2746 22.8053
      vertex 39.0649 40.5 22.4441
      vertex 38.2332 12.2456 24.0001
    endloop
  endfacet
  facet normal 0.881924 0 0.471391
    outer loop
      vertex 39.0649 40.5 22.4441
      vertex 38.8719 10.2746 22.8053
      vertex 39.0649 9.67898 22.4441
    endloop
  endfacet
  facet normal 0.881922 0 -0.471396
    outer loop
      vertex 39.0649 40.5 15.5558
      vertex 38.2332 12.2456 13.9999
      vertex 38.2332 40.5 13.9999
    endloop
  endfacet
  facet normal 0.881922 0 -0.471396
    outer loop
      vertex 38.2332 12.2456 13.9999
      vertex 39.0649 40.5 15.5558
      vertex 39.0649 9.67898 15.5558
    endloop
  endfacet
  facet normal 0.995185 0 -0.0980166
    outer loop
      vertex 39.75 40.5 19
      vertex 39.5771 8.18067 17.2442
      vertex 39.5771 40.5 17.2442
    endloop
  endfacet
  facet normal 0.995185 -4.80108e-08 -0.0980158
    outer loop
      vertex 39.75 40.5 19
      vertex 39.7081 7.89843 18.5747
      vertex 39.5771 8.18067 17.2442
    endloop
  endfacet
  facet normal 0.995185 0 -0.0980194
    outer loop
      vertex 39.7081 7.89843 18.5747
      vertex 39.75 40.5 19
      vertex 39.75 7.61488 19
    endloop
  endfacet
  facet normal 0.77301 -0 0.634394
    outer loop
      vertex 37.114 15.5089 25.364
      vertex 38.2332 40.5 24.0001
      vertex 37.114 40.5 25.364
    endloop
  endfacet
  facet normal 0.773009 1.6954e-07 0.634396
    outer loop
      vertex 37.181 15.4009 25.2823
      vertex 38.2332 40.5 24.0001
      vertex 37.114 15.5089 25.364
    endloop
  endfacet
  facet normal 0.773013 -2.41757e-07 0.634391
    outer loop
      vertex 37.3991 14.7741 25.0165
      vertex 38.2332 40.5 24.0001
      vertex 37.181 15.4009 25.2823
    endloop
  endfacet
  facet normal 0.773008 9.04552e-08 0.634396
    outer loop
      vertex 37.7737 13.6975 24.5601
      vertex 38.2332 40.5 24.0001
      vertex 37.3991 14.7741 25.0165
    endloop
  endfacet
  facet normal 0.773011 0 0.634393
    outer loop
      vertex 38.2332 40.5 24.0001
      vertex 37.7737 13.6975 24.5601
      vertex 38.2332 12.2456 24.0001
    endloop
  endfacet
  facet normal 0.634393 0 -0.773011
    outer loop
      vertex 36.3389 16.8231 12
      vertex 37.114 40.5 12.636
      vertex 37.114 15.5089 12.636
    endloop
  endfacet
  facet normal 0.634393 0 -0.773011
    outer loop
      vertex 37.114 40.5 12.636
      vertex 36.3389 16.8231 12
      vertex 36.3389 40.5 12
    endloop
  endfacet
  facet normal 0.77301 0 -0.634394
    outer loop
      vertex 38.2332 40.5 13.9999
      vertex 37.114 15.5089 12.636
      vertex 37.114 40.5 12.636
    endloop
  endfacet
  facet normal 0.773009 1.6954e-07 -0.634396
    outer loop
      vertex 38.2332 40.5 13.9999
      vertex 37.181 15.4009 12.7177
      vertex 37.114 15.5089 12.636
    endloop
  endfacet
  facet normal 0.77301 -1.50804e-08 -0.634393
    outer loop
      vertex 38.2332 40.5 13.9999
      vertex 37.7737 13.6975 13.4399
      vertex 37.181 15.4009 12.7177
    endloop
  endfacet
  facet normal 0.77301 0 -0.634394
    outer loop
      vertex 37.7737 13.6975 13.4399
      vertex 38.2332 40.5 13.9999
      vertex 38.2332 12.2456 13.9999
    endloop
  endfacet
  facet normal 0.95694 0 -0.290286
    outer loop
      vertex 39.5771 40.5 17.2442
      vertex 39.0649 9.67898 15.5558
      vertex 39.0649 40.5 15.5558
    endloop
  endfacet
  facet normal 0.95694 0 -0.290286
    outer loop
      vertex 39.0649 9.67898 15.5558
      vertex 39.5771 40.5 17.2442
      vertex 39.5771 8.18067 17.2442
    endloop
  endfacet
  facet normal -0 0 1
    outer loop
      vertex 29.1014 19.445 26
      vertex 36.3389 16.8231 26
      vertex 36.3389 40.5 26
    endloop
  endfacet
  facet normal 0 0 1
    outer loop
      vertex 36.3389 16.8231 26
      vertex 34.3275 6.82816 26
      vertex 35 0 26
    endloop
  endfacet
  facet normal 0 0 1
    outer loop
      vertex 36.3389 16.8231 26
      vertex 32.3358 13.3939 26
      vertex 34.3275 6.82816 26
    endloop
  endfacet
  facet normal 0 0 1
    outer loop
      vertex 36.3389 16.8231 26
      vertex 29.1014 19.445 26
      vertex 32.3358 13.3939 26
    endloop
  endfacet
  facet normal 0 0 1
    outer loop
      vertex 36.3389 40.5 26
      vertex 24.7487 24.7487 26
      vertex 29.1014 19.445 26
    endloop
  endfacet
  facet normal 0 0 1
    outer loop
      vertex 36.3389 40.5 26
      vertex 21.4943 33.5352 26
      vertex 24.7487 24.7487 26
    endloop
  endfacet
  facet normal 0 0 1
    outer loop
      vertex 36.3389 40.5 26
      vertex 20.8444 35.1911 26
      vertex 21.4943 33.5352 26
    endloop
  endfacet
  facet normal -0 0 1
    outer loop
      vertex 20.1315 40.5 26
      vertex 20.8444 35.1911 26
      vertex 36.3389 40.5 26
    endloop
  endfacet
  facet normal 0 0 1
    outer loop
      vertex 19.9464 40.5 26
      vertex 20.1315 40.5 26
      vertex 20.1011 40.5074 26
    endloop
  endfacet
  facet normal 0 0 1
    outer loop
      vertex 20.1315 40.5 26
      vertex 19.9464 40.5 26
      vertex 19.1445 35.7155 26
    endloop
  endfacet
  facet normal 0 0 1
    outer loop
      vertex 20.1315 40.5 26
      vertex 19.1445 35.7155 26
      vertex 20.8444 35.1911 26
    endloop
  endfacet
  facet normal 0 0 1
    outer loop
      vertex 19.9464 40.5 26
      vertex 17.6746 34.7134 26
      vertex 19.1445 35.7155 26
    endloop
  endfacet
  facet normal 0 0 1
    outer loop
      vertex 17.6746 34.7134 26
      vertex 13.3939 32.3358 26
      vertex 17.5417 32.9394 26
    endloop
  endfacet
  facet normal 0 0 1
    outer loop
      vertex 6.82816 34.3275 26
      vertex 17.6746 34.7134 26
      vertex 19.9464 40.5 26
    endloop
  endfacet
  facet normal 0 0 1
    outer loop
      vertex 17.6746 34.7134 26
      vertex 6.82816 34.3275 26
      vertex 13.3939 32.3358 26
    endloop
  endfacet
  facet normal 0 0 1
    outer loop
      vertex 19.9464 40.5 26
      vertex 0 35 26
      vertex 6.82816 34.3275 26
    endloop
  endfacet
  facet normal -0 0 1
    outer loop
      vertex -19.9464 40.5 26
      vertex 0 35 26
      vertex 19.9464 40.5 26
    endloop
  endfacet
  facet normal 0 0 1
    outer loop
      vertex -18.2952 35.3822 26
      vertex -13.3939 32.3358 26
      vertex -6.82816 34.3275 26
    endloop
  endfacet
  facet normal 0 0 1
    outer loop
      vertex 0 35 26
      vertex -19.9464 40.5 26
      vertex -6.82816 34.3275 26
    endloop
  endfacet
  facet normal -0 -0 1
    outer loop
      vertex -18.2952 35.3822 26
      vertex -6.82816 34.3275 26
      vertex -19.9464 40.5 26
    endloop
  endfacet
  facet normal 0 0 1
    outer loop
      vertex -13.3939 32.3358 26
      vertex -18.2952 35.3822 26
      vertex -17.4057 33.8416 26
    endloop
  endfacet
  facet normal 0 0 1
    outer loop
      vertex -19.9464 40.5 26
      vertex -20.0542 35.6473 26
      vertex -18.2952 35.3822 26
    endloop
  endfacet
  facet normal 0 0 1
    outer loop
      vertex -20.1315 40.5 26
      vertex -19.9464 40.5 26
      vertex -20.1011 40.5074 26
    endloop
  endfacet
  facet normal 0 0 1
    outer loop
      vertex -19.9464 40.5 26
      vertex -20.1315 40.5 26
      vertex -20.0542 35.6473 26
    endloop
  endfacet
  facet normal 0 0 1
    outer loop
      vertex -20.1315 40.5 26
      vertex -21.3583 34.4373 26
      vertex -20.0542 35.6473 26
    endloop
  endfacet
  facet normal -0 0 1
    outer loop
      vertex -36.3389 40.5 26
      vertex -21.3583 34.4373 26
      vertex -20.1315 40.5 26
    endloop
  endfacet
  facet normal 0 0 1
    outer loop
      vertex -21.3583 34.4373 26
      vertex -36.3389 40.5 26
      vertex -24.7487 24.7487 26
    endloop
  endfacet
  facet normal 0 0 1
    outer loop
      vertex -24.7487 24.7487 26
      vertex -36.3389 40.5 26
      vertex -29.1014 19.445 26
    endloop
  endfacet
  facet normal 0 0 1
    outer loop
      vertex -29.1014 19.445 26
      vertex -36.3389 40.5 26
      vertex -36.3389 16.8231 26
    endloop
  endfacet
  facet normal 0 0 1
    outer loop
      vertex -29.1014 19.445 26
      vertex -36.3389 16.8231 26
      vertex -32.3358 13.3939 26
    endloop
  endfacet
  facet normal -0 0 1
    outer loop
      vertex -37.114 15.3731 26
      vertex -32.3358 13.3939 26
      vertex -36.3389 16.8231 26
    endloop
  endfacet
  facet normal 0 0 1
    outer loop
      vertex -38.7903 9.8468 26
      vertex -32.3358 13.3939 26
      vertex -37.114 15.3731 26
    endloop
  endfacet
  facet normal 0 0 1
    outer loop
      vertex -32.3358 13.3939 26
      vertex -38.7903 9.8468 26
      vertex -34.3275 6.82816 26
    endloop
  endfacet
  facet normal -0 0 1
    outer loop
      vertex -39.4 7.83714 26
      vertex -34.3275 6.82816 26
      vertex -38.7903 9.8468 26
    endloop
  endfacet
  facet normal 0 0 1
    outer loop
      vertex -39.966 2.08998 26
      vertex -34.3275 6.82816 26
      vertex -39.4 7.83714 26
    endloop
  endfacet
  facet normal 0 0 1
    outer loop
      vertex -34.3275 6.82816 26
      vertex -39.966 2.08998 26
      vertex -35 0 26
    endloop
  endfacet
  facet normal 0 0 1
    outer loop
      vertex -35 0 26
      vertex -39.966 2.08998 26
      vertex -40.1719 0 26
    endloop
  endfacet
  facet normal 0 0 1
    outer loop
      vertex 35 0 26
      vertex 39.6058 5.74717 26
      vertex 39.4 7.83714 26
    endloop
  endfacet
  facet normal 0 0 1
    outer loop
      vertex 35 0 26
      vertex 39.4 7.83714 26
      vertex 37.7236 13.3634 26
    endloop
  endfacet
  facet normal 0 0 1
    outer loop
      vertex 36.3389 16.8231 26
      vertex 37.7236 13.3634 26
      vertex 37.114 15.3731 26
    endloop
  endfacet
  facet normal 0 0 1
    outer loop
      vertex 37.7236 13.3634 26
      vertex 36.3389 16.8231 26
      vertex 35 0 26
    endloop
  endfacet
  facet normal 0 0 1
    outer loop
      vertex 39.6058 5.74717 26
      vertex 35 0 26
      vertex 40.1719 0 26
    endloop
  endfacet
  facet normal -0 0 1
    outer loop
      vertex 20.6048 31.9946 26
      vertex 24.7487 24.7487 26
      vertex 21.4943 33.5352 26
    endloop
  endfacet
  facet normal 0 0 1
    outer loop
      vertex 20.6048 31.9946 26
      vertex 19.445 29.1014 26
      vertex 24.7487 24.7487 26
    endloop
  endfacet
  facet normal -0 0 1
    outer loop
      vertex 18.8458 31.7295 26
      vertex 19.445 29.1014 26
      vertex 20.6048 31.9946 26
    endloop
  endfacet
  facet normal -0 0 1
    outer loop
      vertex 13.3939 32.3358 26
      vertex 18.8458 31.7295 26
      vertex 17.5417 32.9394 26
    endloop
  endfacet
  facet normal 0 0 1
    outer loop
      vertex 18.8458 31.7295 26
      vertex 13.3939 32.3358 26
      vertex 19.445 29.1014 26
    endloop
  endfacet
  facet normal 0 0 1
    outer loop
      vertex -18.0556 32.1856 26
      vertex -13.3939 32.3358 26
      vertex -17.4057 33.8416 26
    endloop
  endfacet
  facet normal -0 0 1
    outer loop
      vertex -18.0556 32.1856 26
      vertex -19.445 29.1014 26
      vertex -13.3939 32.3358 26
    endloop
  endfacet
  facet normal -0 0 1
    outer loop
      vertex -19.7555 31.6613 26
      vertex -19.445 29.1014 26
      vertex -18.0556 32.1856 26
    endloop
  endfacet
  facet normal 0 0 1
    outer loop
      vertex -21.2254 32.6634 26
      vertex -19.445 29.1014 26
      vertex -19.7555 31.6613 26
    endloop
  endfacet
  facet normal 0 0 1
    outer loop
      vertex -21.2254 32.6634 26
      vertex -24.7487 24.7487 26
      vertex -19.445 29.1014 26
    endloop
  endfacet
  facet normal 0 0 1
    outer loop
      vertex -24.7487 24.7487 26
      vertex -21.2254 32.6634 26
      vertex -21.3583 34.4373 26
    endloop
  endfacet
  facet normal 0 0 -1
    outer loop
      vertex -32.3358 13.3939 12
      vertex -37.114 15.3731 12
      vertex -36.3389 16.8231 12
    endloop
  endfacet
  facet normal 0 0 -1
    outer loop
      vertex -34.3275 6.82816 12
      vertex -37.7236 13.3634 12
      vertex -37.114 15.3731 12
    endloop
  endfacet
  facet normal 0 0 -1
    outer loop
      vertex -34.3275 6.82816 12
      vertex -39.4 7.83714 12
      vertex -37.7236 13.3634 12
    endloop
  endfacet
  facet normal -0 0 -1
    outer loop
      vertex -34.3275 6.82816 12
      vertex -39.6058 5.74717 12
      vertex -39.4 7.83714 12
    endloop
  endfacet
  facet normal 0 -0 -1
    outer loop
      vertex -39.6058 5.74717 12
      vertex -35 0 12
      vertex -40.1719 0 12
    endloop
  endfacet
  facet normal -0 0 -1
    outer loop
      vertex -13.3939 32.3358 12
      vertex -18.0556 32.1856 12
      vertex -17.4057 33.8416 12
    endloop
  endfacet
  facet normal 0 0 -1
    outer loop
      vertex -19.445 29.1014 12
      vertex -18.0556 32.1856 12
      vertex -13.3939 32.3358 12
    endloop
  endfacet
  facet normal 0 0 -1
    outer loop
      vertex -19.445 29.1014 12
      vertex -19.7555 31.6613 12
      vertex -18.0556 32.1856 12
    endloop
  endfacet
  facet normal 0 0 -1
    outer loop
      vertex -19.445 29.1014 12
      vertex -21.2254 32.6634 12
      vertex -19.7555 31.6613 12
    endloop
  endfacet
  facet normal 0 0 -1
    outer loop
      vertex -36.3389 40.5 12
      vertex -21.2254 32.6634 12
      vertex -24.7487 24.7487 12
    endloop
  endfacet
  facet normal 0 0 -1
    outer loop
      vertex -24.7487 24.7487 12
      vertex -21.2254 32.6634 12
      vertex -19.445 29.1014 12
    endloop
  endfacet
  facet normal 0 0 -1
    outer loop
      vertex 24.7487 24.7487 12
      vertex 20.6048 31.9946 12
      vertex 21.4943 33.5352 12
    endloop
  endfacet
  facet normal 0 0 -1
    outer loop
      vertex 19.445 29.1014 12
      vertex 20.6048 31.9946 12
      vertex 24.7487 24.7487 12
    endloop
  endfacet
  facet normal 0 0 -1
    outer loop
      vertex 19.445 29.1014 12
      vertex 18.8458 31.7295 12
      vertex 20.6048 31.9946 12
    endloop
  endfacet
  facet normal 0 0 -1
    outer loop
      vertex 13.3939 32.3358 12
      vertex 18.8458 31.7295 12
      vertex 19.445 29.1014 12
    endloop
  endfacet
  facet normal 0 0 -1
    outer loop
      vertex 18.8458 31.7295 12
      vertex 13.3939 32.3358 12
      vertex 17.5417 32.9394 12
    endloop
  endfacet
  facet normal 0 0 -1
    outer loop
      vertex 35 0 12
      vertex 39.966 2.08998 12
      vertex 40.1719 0 12
    endloop
  endfacet
  facet normal 0 0 -1
    outer loop
      vertex 39.966 2.08998 12
      vertex 34.3275 6.82816 12
      vertex 39.4 7.83714 12
    endloop
  endfacet
  facet normal -0 0 -1
    outer loop
      vertex 39.4 7.83714 12
      vertex 34.3275 6.82816 12
      vertex 38.7903 9.8468 12
    endloop
  endfacet
  facet normal 0 0 -1
    outer loop
      vertex 32.3358 13.3939 12
      vertex 38.7903 9.8468 12
      vertex 34.3275 6.82816 12
    endloop
  endfacet
  facet normal -0 0 -1
    outer loop
      vertex 39.966 2.08998 12
      vertex 35 0 12
      vertex 34.3275 6.82816 12
    endloop
  endfacet
  facet normal 0 0 -1
    outer loop
      vertex 38.7903 9.8468 12
      vertex 32.3358 13.3939 12
      vertex 37.114 15.3731 12
    endloop
  endfacet
  facet normal -0 0 -1
    outer loop
      vertex 37.114 15.3731 12
      vertex 32.3358 13.3939 12
      vertex 36.3389 16.8231 12
    endloop
  endfacet
  facet normal 0 0 -1
    outer loop
      vertex 29.1014 19.445 12
      vertex 36.3389 16.8231 12
      vertex 32.3358 13.3939 12
    endloop
  endfacet
  facet normal 0 0 -1
    outer loop
      vertex 36.3389 16.8231 12
      vertex 29.1014 19.445 12
      vertex 36.3389 40.5 12
    endloop
  endfacet
  facet normal 0 0 -1
    outer loop
      vertex 24.7487 24.7487 12
      vertex 36.3389 40.5 12
      vertex 29.1014 19.445 12
    endloop
  endfacet
  facet normal 0 0 -1
    outer loop
      vertex 21.4943 33.5352 12
      vertex 36.3389 40.5 12
      vertex 24.7487 24.7487 12
    endloop
  endfacet
  facet normal 0 0 -1
    outer loop
      vertex 20.8444 35.1911 12
      vertex 36.3389 40.5 12
      vertex 21.4943 33.5352 12
    endloop
  endfacet
  facet normal 0 0 -1
    outer loop
      vertex 20.8444 35.1911 12
      vertex 20.1315 40.5 12
      vertex 36.3389 40.5 12
    endloop
  endfacet
  facet normal 0 0 -1
    outer loop
      vertex 19.1445 35.7155 12
      vertex 20.1315 40.5 12
      vertex 20.8444 35.1911 12
    endloop
  endfacet
  facet normal 0 -0 -1
    outer loop
      vertex 19.9464 40.5 12
      vertex 20.1315 40.5 12
      vertex 19.1445 35.7155 12
    endloop
  endfacet
  facet normal 0 0 -1
    outer loop
      vertex 20.1315 40.5 12
      vertex 19.9464 40.5 12
      vertex 20.1011 40.5074 12
    endloop
  endfacet
  facet normal 0 0 -1
    outer loop
      vertex 17.6746 34.7134 12
      vertex 19.9464 40.5 12
      vertex 19.1445 35.7155 12
    endloop
  endfacet
  facet normal 0 0 -1
    outer loop
      vertex 13.3939 32.3358 12
      vertex 17.6746 34.7134 12
      vertex 17.5417 32.9394 12
    endloop
  endfacet
  facet normal 0 0 -1
    outer loop
      vertex 6.82816 34.3275 12
      vertex 17.6746 34.7134 12
      vertex 13.3939 32.3358 12
    endloop
  endfacet
  facet normal -0 0 -1
    outer loop
      vertex 17.6746 34.7134 12
      vertex 6.82816 34.3275 12
      vertex 19.9464 40.5 12
    endloop
  endfacet
  facet normal 0 0 -1
    outer loop
      vertex 0 35 12
      vertex 19.9464 40.5 12
      vertex 6.82816 34.3275 12
    endloop
  endfacet
  facet normal 0 0 -1
    outer loop
      vertex -19.9464 40.5 12
      vertex 0 35 12
      vertex -6.82816 34.3275 12
    endloop
  endfacet
  facet normal 0 0 -1
    outer loop
      vertex -18.2952 35.3822 12
      vertex -13.3939 32.3358 12
      vertex -17.4057 33.8416 12
    endloop
  endfacet
  facet normal 0 0 -1
    outer loop
      vertex -13.3939 32.3358 12
      vertex -18.2952 35.3822 12
      vertex -6.82816 34.3275 12
    endloop
  endfacet
  facet normal 0 0 -1
    outer loop
      vertex -6.82816 34.3275 12
      vertex -18.2952 35.3822 12
      vertex -19.9464 40.5 12
    endloop
  endfacet
  facet normal 0 0 -1
    outer loop
      vertex 0 35 12
      vertex -19.9464 40.5 12
      vertex 19.9464 40.5 12
    endloop
  endfacet
  facet normal 0 0 -1
    outer loop
      vertex -20.0542 35.6473 12
      vertex -19.9464 40.5 12
      vertex -18.2952 35.3822 12
    endloop
  endfacet
  facet normal 0 0 -1
    outer loop
      vertex -20.1315 40.5 12
      vertex -19.9464 40.5 12
      vertex -20.0542 35.6473 12
    endloop
  endfacet
  facet normal 0 0 -1
    outer loop
      vertex -19.9464 40.5 12
      vertex -20.1315 40.5 12
      vertex -20.1011 40.5074 12
    endloop
  endfacet
  facet normal 0 0 -1
    outer loop
      vertex -21.3583 34.4373 12
      vertex -20.1315 40.5 12
      vertex -20.0542 35.6473 12
    endloop
  endfacet
  facet normal 0 0 -1
    outer loop
      vertex -21.2254 32.6634 12
      vertex -36.3389 40.5 12
      vertex -21.3583 34.4373 12
    endloop
  endfacet
  facet normal 0 0 -1
    outer loop
      vertex -36.3389 40.5 12
      vertex -24.7487 24.7487 12
      vertex -29.1014 19.445 12
    endloop
  endfacet
  facet normal 0 0 -1
    outer loop
      vertex -36.3389 16.8231 12
      vertex -29.1014 19.445 12
      vertex -32.3358 13.3939 12
    endloop
  endfacet
  facet normal 0 0 -1
    outer loop
      vertex -39.6058 5.74717 12
      vertex -34.3275 6.82816 12
      vertex -35 0 12
    endloop
  endfacet
  facet normal 0 0 -1
    outer loop
      vertex -37.114 15.3731 12
      vertex -32.3358 13.3939 12
      vertex -34.3275 6.82816 12
    endloop
  endfacet
  facet normal 0 0 -1
    outer loop
      vertex -36.3389 40.5 12
      vertex -29.1014 19.445 12
      vertex -36.3389 16.8231 12
    endloop
  endfacet
  facet normal 0 0 -1
    outer loop
      vertex -21.3583 34.4373 12
      vertex -36.3389 40.5 12
      vertex -20.1315 40.5 12
    endloop
  endfacet
  facet normal -0.634393 -0.77301 0
    outer loop
      vertex 19.445 29.1014 12
      vertex 24.7487 24.7487 26
      vertex 19.445 29.1014 26
    endloop
  endfacet
  facet normal -0.634393 -0.77301 -0
    outer loop
      vertex 24.7487 24.7487 26
      vertex 19.445 29.1014 12
      vertex 24.7487 24.7487 12
    endloop
  endfacet
  facet normal -0.956944 -0.290271 0
    outer loop
      vertex 32.3764 13.26 22.9265
      vertex 32.3358 13.3939 26
      vertex 32.3358 13.3939 22.9346
    endloop
  endfacet
  facet normal -0.95694 -0.290285 6.37447e-07
    outer loop
      vertex 33.7552 8.71472 22.0052
      vertex 32.3358 13.3939 26
      vertex 32.3764 13.26 22.9265
    endloop
  endfacet
  facet normal -0.95694 -0.290285 -0
    outer loop
      vertex 34.3275 6.82816 26
      vertex 33.7552 8.71472 22.0052
      vertex 34.3275 6.82816 21.1487
    endloop
  endfacet
  facet normal -0.95694 -0.290284 1.07199e-07
    outer loop
      vertex 33.7552 8.71472 22.0052
      vertex 34.3275 6.82816 26
      vertex 32.3358 13.3939 26
    endloop
  endfacet
  facet normal -0.956944 -0.290271 0
    outer loop
      vertex 32.3358 13.3939 12
      vertex 32.3764 13.26 15.0735
      vertex 32.3358 13.3939 15.0654
    endloop
  endfacet
  facet normal -0.95694 -0.290285 -6.37448e-07
    outer loop
      vertex 32.3358 13.3939 12
      vertex 33.7552 8.71472 15.9948
      vertex 32.3764 13.26 15.0735
    endloop
  endfacet
  facet normal -0.95694 -0.290284 -1.07199e-07
    outer loop
      vertex 34.3275 6.82816 12
      vertex 33.7552 8.71472 15.9948
      vertex 32.3358 13.3939 12
    endloop
  endfacet
  facet normal -0.95694 -0.290285 0
    outer loop
      vertex 33.7552 8.71472 15.9948
      vertex 34.3275 6.82816 12
      vertex 34.3275 6.82816 16.8513
    endloop
  endfacet
  facet normal 0.290284 -0.95694 0
    outer loop
      vertex -13.3939 32.3358 12
      vertex -6.82816 34.3275 26
      vertex -13.3939 32.3358 26
    endloop
  endfacet
  facet normal 0.290284 -0.95694 0
    outer loop
      vertex -6.82816 34.3275 26
      vertex -13.3939 32.3358 12
      vertex -6.82816 34.3275 12
    endloop
  endfacet
  facet normal 0.881924 -0.471393 0
    outer loop
      vertex -29.1014 19.445 26
      vertex -29.1236 19.4035 22.9265
      vertex -29.1014 19.445 22.9117
    endloop
  endfacet
  facet normal 0.881921 -0.471396 6.91941e-08
    outer loop
      vertex -29.1014 19.445 26
      vertex -30.75 16.3607 23.25
      vertex -29.1236 19.4035 22.9265
    endloop
  endfacet
  facet normal 0.881921 -0.471397 6.14707e-07
    outer loop
      vertex -32.3358 13.3939 26
      vertex -30.75 16.3607 23.25
      vertex -29.1014 19.445 26
    endloop
  endfacet
  facet normal 0.881921 -0.471397 0
    outer loop
      vertex -30.75 16.3607 23.25
      vertex -32.3358 13.3939 26
      vertex -32.3358 13.3939 22.9346
    endloop
  endfacet
  facet normal 0.881924 -0.471393 0
    outer loop
      vertex -29.1236 19.4035 15.0735
      vertex -29.1014 19.445 12
      vertex -29.1014 19.445 15.0883
    endloop
  endfacet
  facet normal 0.881921 -0.471396 -6.91941e-08
    outer loop
      vertex -30.75 16.3607 14.75
      vertex -29.1014 19.445 12
      vertex -29.1236 19.4035 15.0735
    endloop
  endfacet
  facet normal 0.881921 -0.471397 0
    outer loop
      vertex -32.3358 13.3939 12
      vertex -30.75 16.3607 14.75
      vertex -32.3358 13.3939 15.0654
    endloop
  endfacet
  facet normal 0.881921 -0.471397 -6.14707e-07
    outer loop
      vertex -30.75 16.3607 14.75
      vertex -32.3358 13.3939 12
      vertex -29.1014 19.445 12
    endloop
  endfacet
  facet normal -0.881924 -0.471393 0
    outer loop
      vertex 29.1236 19.4035 22.9265
      vertex 29.1014 19.445 26
      vertex 29.1014 19.445 22.9117
    endloop
  endfacet
  facet normal -0.881921 -0.471396 6.91941e-08
    outer loop
      vertex 30.75 16.3607 23.25
      vertex 29.1014 19.445 26
      vertex 29.1236 19.4035 22.9265
    endloop
  endfacet
  facet normal -0.881921 -0.471397 -0
    outer loop
      vertex 32.3358 13.3939 26
      vertex 30.75 16.3607 23.25
      vertex 32.3358 13.3939 22.9346
    endloop
  endfacet
  facet normal -0.881921 -0.471397 6.14707e-07
    outer loop
      vertex 30.75 16.3607 23.25
      vertex 32.3358 13.3939 26
      vertex 29.1014 19.445 26
    endloop
  endfacet
  facet normal -0.881924 -0.471393 0
    outer loop
      vertex 29.1014 19.445 12
      vertex 29.1236 19.4035 15.0735
      vertex 29.1014 19.445 15.0883
    endloop
  endfacet
  facet normal -0.881921 -0.471396 -6.91941e-08
    outer loop
      vertex 29.1014 19.445 12
      vertex 30.75 16.3607 14.75
      vertex 29.1236 19.4035 15.0735
    endloop
  endfacet
  facet normal -0.881921 -0.471397 -6.14707e-07
    outer loop
      vertex 32.3358 13.3939 12
      vertex 30.75 16.3607 14.75
      vertex 29.1014 19.445 12
    endloop
  endfacet
  facet normal -0.881921 -0.471397 0
    outer loop
      vertex 30.75 16.3607 14.75
      vertex 32.3358 13.3939 12
      vertex 32.3358 13.3939 15.0654
    endloop
  endfacet
  facet normal -0.773011 -0.634393 0
    outer loop
      vertex 24.7487 24.7487 12
      vertex 26.5 22.6148 19
      vertex 24.7487 24.7487 26
    endloop
  endfacet
  facet normal -0.773011 -0.634393 -5.36135e-08
    outer loop
      vertex 24.7487 24.7487 12
      vertex 26.8235 22.2206 17.3736
      vertex 26.5 22.6148 19
    endloop
  endfacet
  facet normal -0.77301 -0.634393 -1.78621e-07
    outer loop
      vertex 24.7487 24.7487 12
      vertex 27.7448 21.098 15.9948
      vertex 26.8235 22.2206 17.3736
    endloop
  endfacet
  facet normal -0.77301 -0.634393 -9.89892e-09
    outer loop
      vertex 29.1014 19.445 12
      vertex 27.7448 21.098 15.9948
      vertex 24.7487 24.7487 12
    endloop
  endfacet
  facet normal -0.77301 -0.634393 0
    outer loop
      vertex 27.7448 21.098 15.9948
      vertex 29.1014 19.445 12
      vertex 29.1014 19.445 15.0883
    endloop
  endfacet
  facet normal -0.773011 -0.634393 5.36135e-08
    outer loop
      vertex 26.8235 22.2206 20.6264
      vertex 24.7487 24.7487 26
      vertex 26.5 22.6148 19
    endloop
  endfacet
  facet normal -0.77301 -0.634393 1.78621e-07
    outer loop
      vertex 27.7448 21.098 22.0052
      vertex 24.7487 24.7487 26
      vertex 26.8235 22.2206 20.6264
    endloop
  endfacet
  facet normal -0.77301 -0.634393 -0
    outer loop
      vertex 29.1014 19.445 26
      vertex 27.7448 21.098 22.0052
      vertex 29.1014 19.445 22.9117
    endloop
  endfacet
  facet normal -0.77301 -0.634393 9.89892e-09
    outer loop
      vertex 27.7448 21.098 22.0052
      vertex 29.1014 19.445 26
      vertex 24.7487 24.7487 26
    endloop
  endfacet
  facet normal -0.471397 -0.881921 0
    outer loop
      vertex 13.3939 32.3358 12
      vertex 19.445 29.1014 26
      vertex 13.3939 32.3358 26
    endloop
  endfacet
  facet normal -0.471397 -0.881921 -0
    outer loop
      vertex 19.445 29.1014 26
      vertex 13.3939 32.3358 12
      vertex 19.445 29.1014 12
    endloop
  endfacet
  facet normal -0.0980172 -0.995185 0
    outer loop
      vertex 0 35 12
      vertex 6.82816 34.3275 26
      vertex 0 35 26
    endloop
  endfacet
  facet normal -0.0980172 -0.995185 -0
    outer loop
      vertex 6.82816 34.3275 26
      vertex 0 35 12
      vertex 6.82816 34.3275 12
    endloop
  endfacet
  facet normal 0.995185 -0.098017 0
    outer loop
      vertex -34.3275 6.82816 26
      vertex -34.6765 3.28467 20.6264
      vertex -34.3275 6.82816 21.1487
    endloop
  endfacet
  facet normal 0.995185 -0.0980172 1.76902e-07
    outer loop
      vertex -35 0 26
      vertex -34.6765 3.28467 20.6264
      vertex -34.3275 6.82816 26
    endloop
  endfacet
  facet normal 0.995185 -0.0980175 0
    outer loop
      vertex -34.6765 3.28467 20.6264
      vertex -35 0 26
      vertex -35 0 19
    endloop
  endfacet
  facet normal 0.995185 -0.098017 0
    outer loop
      vertex -34.6765 3.28467 17.3736
      vertex -34.3275 6.82816 12
      vertex -34.3275 6.82816 16.8513
    endloop
  endfacet
  facet normal 0.995185 -0.0980175 0
    outer loop
      vertex -35 0 12
      vertex -34.6765 3.28467 17.3736
      vertex -35 0 19
    endloop
  endfacet
  facet normal 0.995185 -0.0980172 -1.76902e-07
    outer loop
      vertex -34.6765 3.28467 17.3736
      vertex -35 0 12
      vertex -34.3275 6.82816 12
    endloop
  endfacet
  facet normal 0.773011 -0.634393 0
    outer loop
      vertex -24.7487 24.7487 26
      vertex -26.5 22.6148 19
      vertex -24.7487 24.7487 12
    endloop
  endfacet
  facet normal 0.773011 -0.634393 5.36135e-08
    outer loop
      vertex -24.7487 24.7487 26
      vertex -26.8235 22.2206 20.6264
      vertex -26.5 22.6148 19
    endloop
  endfacet
  facet normal 0.77301 -0.634393 1.78621e-07
    outer loop
      vertex -24.7487 24.7487 26
      vertex -27.7448 21.098 22.0052
      vertex -26.8235 22.2206 20.6264
    endloop
  endfacet
  facet normal 0.77301 -0.634393 9.89892e-09
    outer loop
      vertex -29.1014 19.445 26
      vertex -27.7448 21.098 22.0052
      vertex -24.7487 24.7487 26
    endloop
  endfacet
  facet normal 0.77301 -0.634393 0
    outer loop
      vertex -27.7448 21.098 22.0052
      vertex -29.1014 19.445 26
      vertex -29.1014 19.445 22.9117
    endloop
  endfacet
  facet normal 0.773011 -0.634393 -5.36135e-08
    outer loop
      vertex -26.8235 22.2206 17.3736
      vertex -24.7487 24.7487 12
      vertex -26.5 22.6148 19
    endloop
  endfacet
  facet normal 0.77301 -0.634393 -1.78621e-07
    outer loop
      vertex -27.7448 21.098 15.9948
      vertex -24.7487 24.7487 12
      vertex -26.8235 22.2206 17.3736
    endloop
  endfacet
  facet normal 0.77301 -0.634393 0
    outer loop
      vertex -29.1014 19.445 12
      vertex -27.7448 21.098 15.9948
      vertex -29.1014 19.445 15.0883
    endloop
  endfacet
  facet normal 0.77301 -0.634393 -9.89892e-09
    outer loop
      vertex -27.7448 21.098 15.9948
      vertex -29.1014 19.445 12
      vertex -24.7487 24.7487 12
    endloop
  endfacet
  facet normal 0.471397 -0.881921 0
    outer loop
      vertex -19.445 29.1014 12
      vertex -13.3939 32.3358 26
      vertex -19.445 29.1014 26
    endloop
  endfacet
  facet normal 0.471397 -0.881921 0
    outer loop
      vertex -13.3939 32.3358 26
      vertex -19.445 29.1014 12
      vertex -13.3939 32.3358 12
    endloop
  endfacet
  facet normal 0.0980172 -0.995185 0
    outer loop
      vertex -6.82816 34.3275 12
      vertex 0 35 26
      vertex -6.82816 34.3275 26
    endloop
  endfacet
  facet normal 0.0980172 -0.995185 0
    outer loop
      vertex 0 35 26
      vertex -6.82816 34.3275 12
      vertex 0 35 12
    endloop
  endfacet
  facet normal 0.634393 -0.77301 0
    outer loop
      vertex -24.7487 24.7487 12
      vertex -19.445 29.1014 26
      vertex -24.7487 24.7487 26
    endloop
  endfacet
  facet normal 0.634393 -0.77301 0
    outer loop
      vertex -19.445 29.1014 26
      vertex -24.7487 24.7487 12
      vertex -19.445 29.1014 12
    endloop
  endfacet
  facet normal -0.995185 -0.098017 0
    outer loop
      vertex 34.6765 3.28467 20.6264
      vertex 34.3275 6.82816 26
      vertex 34.3275 6.82816 21.1487
    endloop
  endfacet
  facet normal -0.995185 -0.0980175 -0
    outer loop
      vertex 35 0 26
      vertex 34.6765 3.28467 20.6264
      vertex 35 0 19
    endloop
  endfacet
  facet normal -0.995185 -0.0980172 1.76902e-07
    outer loop
      vertex 34.6765 3.28467 20.6264
      vertex 35 0 26
      vertex 34.3275 6.82816 26
    endloop
  endfacet
  facet normal -0.995185 -0.098017 0
    outer loop
      vertex 34.3275 6.82816 12
      vertex 34.6765 3.28467 17.3736
      vertex 34.3275 6.82816 16.8513
    endloop
  endfacet
  facet normal -0.995185 -0.0980172 -1.76902e-07
    outer loop
      vertex 35 0 12
      vertex 34.6765 3.28467 17.3736
      vertex 34.3275 6.82816 12
    endloop
  endfacet
  facet normal -0.995185 -0.0980175 0
    outer loop
      vertex 34.6765 3.28467 17.3736
      vertex 35 0 12
      vertex 35 0 19
    endloop
  endfacet
  facet normal -0.290284 -0.95694 0
    outer loop
      vertex 6.82816 34.3275 12
      vertex 13.3939 32.3358 26
      vertex 6.82816 34.3275 26
    endloop
  endfacet
  facet normal -0.290284 -0.95694 -0
    outer loop
      vertex 13.3939 32.3358 26
      vertex 6.82816 34.3275 12
      vertex 13.3939 32.3358 12
    endloop
  endfacet
  facet normal 0.956944 -0.290271 0
    outer loop
      vertex -32.3358 13.3939 26
      vertex -32.3764 13.26 22.9265
      vertex -32.3358 13.3939 22.9346
    endloop
  endfacet
  facet normal 0.95694 -0.290285 6.37447e-07
    outer loop
      vertex -32.3358 13.3939 26
      vertex -33.7552 8.71472 22.0052
      vertex -32.3764 13.26 22.9265
    endloop
  endfacet
  facet normal 0.95694 -0.290284 1.07199e-07
    outer loop
      vertex -34.3275 6.82816 26
      vertex -33.7552 8.71472 22.0052
      vertex -32.3358 13.3939 26
    endloop
  endfacet
  facet normal 0.95694 -0.290285 0
    outer loop
      vertex -33.7552 8.71472 22.0052
      vertex -34.3275 6.82816 26
      vertex -34.3275 6.82816 21.1487
    endloop
  endfacet
  facet normal 0.956944 -0.290271 0
    outer loop
      vertex -32.3764 13.26 15.0735
      vertex -32.3358 13.3939 12
      vertex -32.3358 13.3939 15.0654
    endloop
  endfacet
  facet normal 0.95694 -0.290285 -6.37448e-07
    outer loop
      vertex -33.7552 8.71472 15.9948
      vertex -32.3358 13.3939 12
      vertex -32.3764 13.26 15.0735
    endloop
  endfacet
  facet normal 0.95694 -0.290285 0
    outer loop
      vertex -34.3275 6.82816 12
      vertex -33.7552 8.71472 15.9948
      vertex -34.3275 6.82816 16.8513
    endloop
  endfacet
  facet normal 0.95694 -0.290284 -1.07199e-07
    outer loop
      vertex -33.7552 8.71472 15.9948
      vertex -34.3275 6.82816 12
      vertex -32.3358 13.3939 12
    endloop
  endfacet
  facet normal -0.980785 0 -0.195091
    outer loop
      vertex 35 40.5 19
      vertex 34.6765 3.28467 20.6264
      vertex 34.6765 40.5 20.6264
    endloop
  endfacet
  facet normal -0.980785 0 -0.195091
    outer loop
      vertex 34.6765 3.28467 20.6264
      vertex 35 40.5 19
      vertex 35 0 19
    endloop
  endfacet
  facet normal 0.980785 -0 0.19509
    outer loop
      vertex 26.5 22.6148 19
      vertex 26.8235 40.5 17.3736
      vertex 26.5 40.5 19
    endloop
  endfacet
  facet normal 0.980785 0 0.19509
    outer loop
      vertex 26.8235 40.5 17.3736
      vertex 26.5 22.6148 19
      vertex 26.8235 22.2206 17.3736
    endloop
  endfacet
  facet normal -0.55557 0 0.83147
    outer loop
      vertex 32.3764 13.26 15.0735
      vertex 33.7552 40.5 15.9948
      vertex 32.3764 40.5 15.0735
    endloop
  endfacet
  facet normal -0.55557 0 0.83147
    outer loop
      vertex 33.7552 40.5 15.9948
      vertex 32.3764 13.26 15.0735
      vertex 33.7552 8.71472 15.9948
    endloop
  endfacet
  facet normal -0.195089 0 0.980786
    outer loop
      vertex 32.3764 40.5 15.0735
      vertex 32.3358 13.3939 15.0654
      vertex 32.3764 13.26 15.0735
    endloop
  endfacet
  facet normal -0.19509 0 0.980785
    outer loop
      vertex 30.75 16.3607 14.75
      vertex 32.3764 40.5 15.0735
      vertex 30.75 40.5 14.75
    endloop
  endfacet
  facet normal -0.19509 2.0118e-09 0.980785
    outer loop
      vertex 32.3764 40.5 15.0735
      vertex 30.75 16.3607 14.75
      vertex 32.3358 13.3939 15.0654
    endloop
  endfacet
  facet normal -0.55557 0 -0.83147
    outer loop
      vertex 32.3764 13.26 22.9265
      vertex 33.7552 40.5 22.0052
      vertex 33.7552 8.71472 22.0052
    endloop
  endfacet
  facet normal -0.55557 0 -0.83147
    outer loop
      vertex 33.7552 40.5 22.0052
      vertex 32.3764 13.26 22.9265
      vertex 32.3764 40.5 22.9265
    endloop
  endfacet
  facet normal 0.195091 0 -0.980785
    outer loop
      vertex 29.1236 19.4035 22.9265
      vertex 30.75 40.5 23.25
      vertex 30.75 16.3607 23.25
    endloop
  endfacet
  facet normal 0.195091 0 -0.980785
    outer loop
      vertex 30.75 40.5 23.25
      vertex 29.1236 19.4035 22.9265
      vertex 29.1236 40.5 22.9265
    endloop
  endfacet
  facet normal -0.195133 0 -0.980777
    outer loop
      vertex 32.3358 13.3939 22.9346
      vertex 32.3764 40.5 22.9265
      vertex 32.3764 13.26 22.9265
    endloop
  endfacet
  facet normal -0.19509 -6.68093e-08 -0.980785
    outer loop
      vertex 30.75 16.3607 23.25
      vertex 32.3764 40.5 22.9265
      vertex 32.3358 13.3939 22.9346
    endloop
  endfacet
  facet normal -0.195091 0 -0.980785
    outer loop
      vertex 32.3764 40.5 22.9265
      vertex 30.75 16.3607 23.25
      vertex 30.75 40.5 23.25
    endloop
  endfacet
  facet normal 0.831469 0 -0.555571
    outer loop
      vertex 27.7448 40.5 22.0052
      vertex 26.8235 22.2206 20.6264
      vertex 26.8235 40.5 20.6264
    endloop
  endfacet
  facet normal 0.831469 0 -0.555571
    outer loop
      vertex 26.8235 22.2206 20.6264
      vertex 27.7448 40.5 22.0052
      vertex 27.7448 21.098 22.0052
    endloop
  endfacet
  facet normal -0.83147 0 0.55557
    outer loop
      vertex 33.7552 8.71472 15.9948
      vertex 34.6765 40.5 17.3736
      vertex 33.7552 40.5 15.9948
    endloop
  endfacet
  facet normal -0.83147 -3.43103e-08 0.55557
    outer loop
      vertex 34.3275 6.82816 16.8513
      vertex 34.6765 40.5 17.3736
      vertex 33.7552 8.71472 15.9948
    endloop
  endfacet
  facet normal -0.831471 0 0.555569
    outer loop
      vertex 34.6765 40.5 17.3736
      vertex 34.3275 6.82816 16.8513
      vertex 34.6765 3.28467 17.3736
    endloop
  endfacet
  facet normal 0.19509 -0 0.980785
    outer loop
      vertex 29.1236 19.4035 15.0735
      vertex 30.75 40.5 14.75
      vertex 29.1236 40.5 15.0735
    endloop
  endfacet
  facet normal 0.19509 0 0.980785
    outer loop
      vertex 30.75 40.5 14.75
      vertex 29.1236 19.4035 15.0735
      vertex 30.75 16.3607 14.75
    endloop
  endfacet
  facet normal -0.83147 0 -0.55557
    outer loop
      vertex 34.6765 40.5 20.6264
      vertex 33.7552 8.71472 22.0052
      vertex 33.7552 40.5 22.0052
    endloop
  endfacet
  facet normal -0.831469 -4.35894e-08 -0.555571
    outer loop
      vertex 34.6765 40.5 20.6264
      vertex 34.3275 6.82816 21.1487
      vertex 33.7552 8.71472 22.0052
    endloop
  endfacet
  facet normal -0.831471 0 -0.555569
    outer loop
      vertex 34.3275 6.82816 21.1487
      vertex 34.6765 40.5 20.6264
      vertex 34.6765 3.28467 20.6264
    endloop
  endfacet
  facet normal 0.980785 0 -0.19509
    outer loop
      vertex 26.8235 40.5 20.6264
      vertex 26.5 22.6148 19
      vertex 26.5 40.5 19
    endloop
  endfacet
  facet normal 0.980785 0 -0.19509
    outer loop
      vertex 26.5 22.6148 19
      vertex 26.8235 40.5 20.6264
      vertex 26.8235 22.2206 20.6264
    endloop
  endfacet
  facet normal 0.555526 0 -0.831499
    outer loop
      vertex 29.1014 19.445 22.9117
      vertex 29.1236 40.5 22.9265
      vertex 29.1236 19.4035 22.9265
    endloop
  endfacet
  facet normal 0.555571 -6.83717e-08 -0.831469
    outer loop
      vertex 27.7448 21.098 22.0052
      vertex 29.1236 40.5 22.9265
      vertex 29.1014 19.445 22.9117
    endloop
  endfacet
  facet normal 0.55557 0 -0.83147
    outer loop
      vertex 29.1236 40.5 22.9265
      vertex 27.7448 21.098 22.0052
      vertex 27.7448 40.5 22.0052
    endloop
  endfacet
  facet normal -0.980785 0 0.195091
    outer loop
      vertex 34.6765 3.28467 17.3736
      vertex 35 40.5 19
      vertex 34.6765 40.5 17.3736
    endloop
  endfacet
  facet normal -0.980785 0 0.195091
    outer loop
      vertex 35 40.5 19
      vertex 34.6765 3.28467 17.3736
      vertex 35 0 19
    endloop
  endfacet
  facet normal 0.831469 -0 0.555571
    outer loop
      vertex 26.8235 22.2206 17.3736
      vertex 27.7448 40.5 15.9948
      vertex 26.8235 40.5 17.3736
    endloop
  endfacet
  facet normal 0.831469 0 0.555571
    outer loop
      vertex 27.7448 40.5 15.9948
      vertex 26.8235 22.2206 17.3736
      vertex 27.7448 21.098 15.9948
    endloop
  endfacet
  facet normal 0.555575 0 0.831466
    outer loop
      vertex 29.1236 40.5 15.0735
      vertex 29.1014 19.445 15.0883
      vertex 29.1236 19.4035 15.0735
    endloop
  endfacet
  facet normal 0.55557 -0 0.83147
    outer loop
      vertex 27.7448 21.098 15.9948
      vertex 29.1236 40.5 15.0735
      vertex 27.7448 40.5 15.9948
    endloop
  endfacet
  facet normal 0.55557 7.46795e-09 0.83147
    outer loop
      vertex 29.1236 40.5 15.0735
      vertex 27.7448 21.098 15.9948
      vertex 29.1014 19.445 15.0883
    endloop
  endfacet
  facet normal -0.980785 0 -0.19509
    outer loop
      vertex -26.5 22.6148 19
      vertex -26.8235 40.5 20.6264
      vertex -26.5 40.5 19
    endloop
  endfacet
  facet normal -0.980785 -0 -0.19509
    outer loop
      vertex -26.8235 40.5 20.6264
      vertex -26.5 22.6148 19
      vertex -26.8235 22.2206 20.6264
    endloop
  endfacet
  facet normal -0.831469 0 -0.555571
    outer loop
      vertex -26.8235 22.2206 20.6264
      vertex -27.7448 40.5 22.0052
      vertex -26.8235 40.5 20.6264
    endloop
  endfacet
  facet normal -0.831469 -0 -0.555571
    outer loop
      vertex -27.7448 40.5 22.0052
      vertex -26.8235 22.2206 20.6264
      vertex -27.7448 21.098 22.0052
    endloop
  endfacet
  facet normal 0.980785 0 -0.195091
    outer loop
      vertex -34.6765 3.28467 20.6264
      vertex -35 40.5 19
      vertex -34.6765 40.5 20.6264
    endloop
  endfacet
  facet normal 0.980785 0 -0.195091
    outer loop
      vertex -35 40.5 19
      vertex -34.6765 3.28467 20.6264
      vertex -35 0 19
    endloop
  endfacet
  facet normal 0.980785 0 0.195091
    outer loop
      vertex -35 40.5 19
      vertex -34.6765 3.28467 17.3736
      vertex -34.6765 40.5 17.3736
    endloop
  endfacet
  facet normal 0.980785 0 0.195091
    outer loop
      vertex -34.6765 3.28467 17.3736
      vertex -35 40.5 19
      vertex -35 0 19
    endloop
  endfacet
  facet normal -0.195091 -0 -0.980785
    outer loop
      vertex -30.75 40.5 23.25
      vertex -29.1236 19.4035 22.9265
      vertex -30.75 16.3607 23.25
    endloop
  endfacet
  facet normal -0.195091 0 -0.980785
    outer loop
      vertex -29.1236 19.4035 22.9265
      vertex -30.75 40.5 23.25
      vertex -29.1236 40.5 22.9265
    endloop
  endfacet
  facet normal -0.555571 -6.83717e-08 -0.831469
    outer loop
      vertex -29.1236 40.5 22.9265
      vertex -27.7448 21.098 22.0052
      vertex -29.1014 19.445 22.9117
    endloop
  endfacet
  facet normal -0.555526 -0 -0.831499
    outer loop
      vertex -29.1236 40.5 22.9265
      vertex -29.1014 19.445 22.9117
      vertex -29.1236 19.4035 22.9265
    endloop
  endfacet
  facet normal -0.55557 0 -0.83147
    outer loop
      vertex -27.7448 21.098 22.0052
      vertex -29.1236 40.5 22.9265
      vertex -27.7448 40.5 22.0052
    endloop
  endfacet
  facet normal -0.831469 0 0.555571
    outer loop
      vertex -27.7448 40.5 15.9948
      vertex -26.8235 22.2206 17.3736
      vertex -26.8235 40.5 17.3736
    endloop
  endfacet
  facet normal -0.831469 0 0.555571
    outer loop
      vertex -26.8235 22.2206 17.3736
      vertex -27.7448 40.5 15.9948
      vertex -27.7448 21.098 15.9948
    endloop
  endfacet
  facet normal 0.83147 0 -0.55557
    outer loop
      vertex -33.7552 8.71472 22.0052
      vertex -34.6765 40.5 20.6264
      vertex -33.7552 40.5 22.0052
    endloop
  endfacet
  facet normal 0.831469 -4.35894e-08 -0.555571
    outer loop
      vertex -34.3275 6.82816 21.1487
      vertex -34.6765 40.5 20.6264
      vertex -33.7552 8.71472 22.0052
    endloop
  endfacet
  facet normal 0.831471 0 -0.555569
    outer loop
      vertex -34.6765 40.5 20.6264
      vertex -34.3275 6.82816 21.1487
      vertex -34.6765 3.28467 20.6264
    endloop
  endfacet
  facet normal 0.19509 -6.68093e-08 -0.980785
    outer loop
      vertex -32.3764 40.5 22.9265
      vertex -30.75 16.3607 23.25
      vertex -32.3358 13.3939 22.9346
    endloop
  endfacet
  facet normal 0.195133 0 -0.980777
    outer loop
      vertex -32.3764 40.5 22.9265
      vertex -32.3358 13.3939 22.9346
      vertex -32.3764 13.26 22.9265
    endloop
  endfacet
  facet normal 0.195091 0 -0.980785
    outer loop
      vertex -30.75 16.3607 23.25
      vertex -32.3764 40.5 22.9265
      vertex -30.75 40.5 23.25
    endloop
  endfacet
  facet normal 0.55557 0 -0.83147
    outer loop
      vertex -33.7552 40.5 22.0052
      vertex -32.3764 13.26 22.9265
      vertex -33.7552 8.71472 22.0052
    endloop
  endfacet
  facet normal 0.55557 0 -0.83147
    outer loop
      vertex -32.3764 13.26 22.9265
      vertex -33.7552 40.5 22.0052
      vertex -32.3764 40.5 22.9265
    endloop
  endfacet
  facet normal -0.19509 0 0.980785
    outer loop
      vertex -30.75 40.5 14.75
      vertex -29.1236 19.4035 15.0735
      vertex -29.1236 40.5 15.0735
    endloop
  endfacet
  facet normal -0.19509 0 0.980785
    outer loop
      vertex -29.1236 19.4035 15.0735
      vertex -30.75 40.5 14.75
      vertex -30.75 16.3607 14.75
    endloop
  endfacet
  facet normal -0.55557 0 0.83147
    outer loop
      vertex -29.1236 40.5 15.0735
      vertex -27.7448 21.098 15.9948
      vertex -27.7448 40.5 15.9948
    endloop
  endfacet
  facet normal -0.55557 7.46795e-09 0.83147
    outer loop
      vertex -27.7448 21.098 15.9948
      vertex -29.1236 40.5 15.0735
      vertex -29.1014 19.445 15.0883
    endloop
  endfacet
  facet normal -0.555575 0 0.831466
    outer loop
      vertex -29.1014 19.445 15.0883
      vertex -29.1236 40.5 15.0735
      vertex -29.1236 19.4035 15.0735
    endloop
  endfacet
  facet normal -0.980785 0 0.19509
    outer loop
      vertex -26.8235 40.5 17.3736
      vertex -26.5 22.6148 19
      vertex -26.5 40.5 19
    endloop
  endfacet
  facet normal -0.980785 0 0.19509
    outer loop
      vertex -26.5 22.6148 19
      vertex -26.8235 40.5 17.3736
      vertex -26.8235 22.2206 17.3736
    endloop
  endfacet
  facet normal 0.55557 0 0.83147
    outer loop
      vertex -33.7552 40.5 15.9948
      vertex -32.3764 13.26 15.0735
      vertex -32.3764 40.5 15.0735
    endloop
  endfacet
  facet normal 0.55557 0 0.83147
    outer loop
      vertex -32.3764 13.26 15.0735
      vertex -33.7552 40.5 15.9948
      vertex -33.7552 8.71472 15.9948
    endloop
  endfacet
  facet normal 0.83147 0 0.55557
    outer loop
      vertex -34.6765 40.5 17.3736
      vertex -33.7552 8.71472 15.9948
      vertex -33.7552 40.5 15.9948
    endloop
  endfacet
  facet normal 0.83147 -3.43103e-08 0.55557
    outer loop
      vertex -34.6765 40.5 17.3736
      vertex -34.3275 6.82816 16.8513
      vertex -33.7552 8.71472 15.9948
    endloop
  endfacet
  facet normal 0.831471 0 0.555569
    outer loop
      vertex -34.3275 6.82816 16.8513
      vertex -34.6765 40.5 17.3736
      vertex -34.6765 3.28467 17.3736
    endloop
  endfacet
  facet normal 0.19509 0 0.980785
    outer loop
      vertex -32.3764 40.5 15.0735
      vertex -30.75 16.3607 14.75
      vertex -30.75 40.5 14.75
    endloop
  endfacet
  facet normal 0.19509 2.0118e-09 0.980785
    outer loop
      vertex -30.75 16.3607 14.75
      vertex -32.3764 40.5 15.0735
      vertex -32.3358 13.3939 15.0654
    endloop
  endfacet
  facet normal 0.195089 0 0.980786
    outer loop
      vertex -32.3358 13.3939 15.0654
      vertex -32.3764 40.5 15.0735
      vertex -32.3764 13.26 15.0735
    endloop
  endfacet
  facet normal -0.0475815 0.998867 0
    outer loop
      vertex 20.1011 40.5074 12
      vertex 19.9464 40.5 26
      vertex 20.1011 40.5074 26
    endloop
  endfacet
  facet normal -0.0475815 0.998867 0
    outer loop
      vertex 19.9464 40.5 26
      vertex 20.1011 40.5074 12
      vertex 19.9464 40.5 12
    endloop
  endfacet
  facet normal 0.235754 0.971813 -0
    outer loop
      vertex 20.1315 40.5 12
      vertex 20.1011 40.5074 26
      vertex 20.1315 40.5 26
    endloop
  endfacet
  facet normal 0.235754 0.971813 0
    outer loop
      vertex 20.1011 40.5074 26
      vertex 20.1315 40.5 12
      vertex 20.1011 40.5074 12
    endloop
  endfacet
  facet normal -0.235754 0.971813 0
    outer loop
      vertex -20.1011 40.5074 12
      vertex -20.1315 40.5 26
      vertex -20.1011 40.5074 26
    endloop
  endfacet
  facet normal -0.235754 0.971813 0
    outer loop
      vertex -20.1315 40.5 26
      vertex -20.1011 40.5074 12
      vertex -20.1315 40.5 12
    endloop
  endfacet
  facet normal 0.0475815 0.998867 -0
    outer loop
      vertex -19.9464 40.5 12
      vertex -20.1011 40.5074 26
      vertex -19.9464 40.5 26
    endloop
  endfacet
  facet normal 0.0475815 0.998867 0
    outer loop
      vertex -20.1011 40.5074 26
      vertex -19.9464 40.5 12
      vertex -20.1011 40.5074 12
    endloop
  endfacet
  facet normal 0.997204 -0.0747308 0
    outer loop
      vertex 17.5417 32.9394 26
      vertex 17.6746 34.7134 12
      vertex 17.6746 34.7134 26
    endloop
  endfacet
  facet normal 0.997204 -0.0747308 0
    outer loop
      vertex 17.6746 34.7134 12
      vertex 17.5417 32.9394 26
      vertex 17.5417 32.9394 12
    endloop
  endfacet
  facet normal 0.680172 0.733053 -0
    outer loop
      vertex 18.8458 31.7295 12
      vertex 17.5417 32.9394 26
      vertex 18.8458 31.7295 26
    endloop
  endfacet
  facet normal 0.680172 0.733053 0
    outer loop
      vertex 17.5417 32.9394 26
      vertex 18.8458 31.7295 12
      vertex 17.5417 32.9394 12
    endloop
  endfacet
  facet normal -0.149042 0.988831 0
    outer loop
      vertex 20.6048 31.9946 12
      vertex 18.8458 31.7295 26
      vertex 20.6048 31.9946 26
    endloop
  endfacet
  facet normal -0.149042 0.988831 0
    outer loop
      vertex 18.8458 31.7295 26
      vertex 20.6048 31.9946 12
      vertex 18.8458 31.7295 12
    endloop
  endfacet
  facet normal 0.563321 -0.826238 0
    outer loop
      vertex 17.6746 34.7134 12
      vertex 19.1445 35.7155 26
      vertex 17.6746 34.7134 26
    endloop
  endfacet
  facet normal 0.563321 -0.826238 0
    outer loop
      vertex 19.1445 35.7155 26
      vertex 17.6746 34.7134 12
      vertex 19.1445 35.7155 12
    endloop
  endfacet
  facet normal -0.294756 -0.955572 0
    outer loop
      vertex 19.1445 35.7155 12
      vertex 20.8444 35.1911 26
      vertex 19.1445 35.7155 26
    endloop
  endfacet
  facet normal -0.294756 -0.955572 -0
    outer loop
      vertex 20.8444 35.1911 26
      vertex 19.1445 35.7155 12
      vertex 20.8444 35.1911 12
    endloop
  endfacet
  facet normal -0.930874 -0.365341 0
    outer loop
      vertex 21.4943 33.5352 12
      vertex 20.8444 35.1911 26
      vertex 20.8444 35.1911 12
    endloop
  endfacet
  facet normal -0.930874 -0.365341 0
    outer loop
      vertex 20.8444 35.1911 26
      vertex 21.4943 33.5352 12
      vertex 21.4943 33.5352 26
    endloop
  endfacet
  facet normal -0.866025 0.5 0
    outer loop
      vertex 20.6048 31.9946 12
      vertex 21.4943 33.5352 26
      vertex 21.4943 33.5352 12
    endloop
  endfacet
  facet normal -0.866025 0.5 0
    outer loop
      vertex 21.4943 33.5352 26
      vertex 20.6048 31.9946 12
      vertex 20.6048 31.9946 26
    endloop
  endfacet
  facet normal 0.563319 0.826239 -0
    outer loop
      vertex -19.7555 31.6613 12
      vertex -21.2254 32.6634 26
      vertex -19.7555 31.6613 26
    endloop
  endfacet
  facet normal 0.563319 0.826239 0
    outer loop
      vertex -21.2254 32.6634 26
      vertex -19.7555 31.6613 12
      vertex -21.2254 32.6634 12
    endloop
  endfacet
  facet normal -0.866026 -0.499999 0
    outer loop
      vertex -17.4057 33.8416 12
      vertex -18.2952 35.3822 26
      vertex -18.2952 35.3822 12
    endloop
  endfacet
  facet normal -0.866026 -0.499999 0
    outer loop
      vertex -18.2952 35.3822 26
      vertex -17.4057 33.8416 12
      vertex -17.4057 33.8416 26
    endloop
  endfacet
  facet normal -0.294755 0.955573 0
    outer loop
      vertex -18.0556 32.1856 12
      vertex -19.7555 31.6613 26
      vertex -18.0556 32.1856 26
    endloop
  endfacet
  facet normal -0.294755 0.955573 0
    outer loop
      vertex -19.7555 31.6613 26
      vertex -18.0556 32.1856 12
      vertex -19.7555 31.6613 12
    endloop
  endfacet
  facet normal -0.930874 0.365341 0
    outer loop
      vertex -18.0556 32.1856 12
      vertex -17.4057 33.8416 26
      vertex -17.4057 33.8416 12
    endloop
  endfacet
  facet normal -0.930874 0.365341 0
    outer loop
      vertex -17.4057 33.8416 26
      vertex -18.0556 32.1856 12
      vertex -18.0556 32.1856 26
    endloop
  endfacet
  facet normal 0.997204 0.0747308 0
    outer loop
      vertex -21.2254 32.6634 26
      vertex -21.3583 34.4373 12
      vertex -21.3583 34.4373 26
    endloop
  endfacet
  facet normal 0.997204 0.0747308 0
    outer loop
      vertex -21.3583 34.4373 12
      vertex -21.2254 32.6634 26
      vertex -21.2254 32.6634 12
    endloop
  endfacet
  facet normal 0.680173 -0.733052 0
    outer loop
      vertex -21.3583 34.4373 12
      vertex -20.0542 35.6473 26
      vertex -21.3583 34.4373 26
    endloop
  endfacet
  facet normal 0.680173 -0.733052 0
    outer loop
      vertex -20.0542 35.6473 26
      vertex -21.3583 34.4373 12
      vertex -20.0542 35.6473 12
    endloop
  endfacet
  facet normal -0.149041 -0.988831 0
    outer loop
      vertex -20.0542 35.6473 12
      vertex -18.2952 35.3822 26
      vertex -20.0542 35.6473 26
    endloop
  endfacet
  facet normal -0.149041 -0.988831 -0
    outer loop
      vertex -18.2952 35.3822 26
      vertex -20.0542 35.6473 12
      vertex -18.2952 35.3822 12
    endloop
  endfacet
  facet normal 0 -1 0
    outer loop
      vertex -40.3175 0 24.5601
      vertex -35 0 26
      vertex -40.1719 0 26
    endloop
  endfacet
  facet normal 0 -1 0
    outer loop
      vertex -35 0 19
      vertex -40.3175 0 24.5601
      vertex -40.5 0 19
    endloop
  endfacet
  facet normal 0 -1 0
    outer loop
      vertex -40.3175 0 24.5601
      vertex -35 0 19
      vertex -35 0 26
    endloop
  endfacet
  facet normal 0 -1 0
    outer loop
      vertex -40.3175 0 13.4399
      vertex -35 0 19
      vertex -40.5 0 19
    endloop
  endfacet
  facet normal 0 -1 0
    outer loop
      vertex -35 0 12
      vertex -40.3175 0 13.4399
      vertex -40.1719 0 12
    endloop
  endfacet
  facet normal 0 -1 0
    outer loop
      vertex -40.3175 0 13.4399
      vertex -35 0 12
      vertex -35 0 19
    endloop
  endfacet
  facet normal 0 -1 0
    outer loop
      vertex 35 0 26
      vertex 40.3175 0 24.5601
      vertex 40.1719 0 26
    endloop
  endfacet
  facet normal 0 -1 0
    outer loop
      vertex 35 0 19
      vertex 40.3175 0 24.5601
      vertex 35 0 26
    endloop
  endfacet
  facet normal 0 -1 0
    outer loop
      vertex 35 0 19
      vertex 40.5 0 19
      vertex 40.3175 0 24.5601
    endloop
  endfacet
  facet normal 0 -1 0
    outer loop
      vertex 35 0 19
      vertex 40.3175 0 13.4399
      vertex 40.5 0 19
    endloop
  endfacet
  facet normal 0 -1 0
    outer loop
      vertex 35 0 12
      vertex 40.3175 0 13.4399
      vertex 35 0 19
    endloop
  endfacet
  facet normal 0 -1 0
    outer loop
      vertex 40.3175 0 13.4399
      vertex 35 0 12
      vertex 40.1719 0 12
    endloop
  endfacet
endsolid OpenSCAD_Model
